<svg width="49" height="44" viewBox="0 0 49 44" fill="none" xmlns="http://www.w3.org/2000/svg">
<path d="M9.91839 35.4965C9.94201 36.821 9.98601 38.1467 9.98387 39.4713C9.97957 41.7855 8.44569 43.568 6.34613 43.7342C4.25194 43.9005 2.31339 42.2047 2.22859 39.9678C2.1556 38.0602 2.25972 36.1434 2.30373 34.2311C2.44005 28.3794 2.58067 22.5265 2.73309 16.6748C2.74275 16.2955 2.63326 16.0689 2.35847 15.824C0.524043 14.1874 -0.225186 12.1054 0.0581897 9.56453C0.344786 6.98944 0.557318 4.40411 0.796685 1.82333C0.848208 1.26413 1.0017 0.76756 1.53733 0.550027C1.97527 0.372357 2.44005 0.457776 2.69337 0.864369C2.8898 1.17871 3.00895 1.62971 2.97997 2.00442C2.81037 4.21163 2.58603 6.41429 2.38209 8.61923C2.37243 8.72971 2.38102 8.84132 2.38102 8.97913H5.02371V8.37209C5.02371 6.28788 5.02264 4.20366 5.02586 2.11945C5.02586 1.87458 5.03337 1.62516 5.07631 1.38485C5.16755 0.871196 5.56148 0.516995 6.04558 0.489661C6.57047 0.461189 6.94724 0.71289 7.1222 1.2311C7.20378 1.47255 7.21558 1.75044 7.21666 2.01125C7.2231 4.31983 7.22095 6.62841 7.22095 8.97002H9.90014C9.81213 8.00764 9.72625 7.05436 9.63716 6.10109C9.50835 4.70706 9.36667 3.31417 9.25289 1.91786C9.18526 1.0876 9.55666 0.559135 10.2093 0.482828C10.8683 0.405382 11.3299 0.847283 11.4158 1.68097C11.565 3.12967 11.6927 4.58178 11.8344 6.03162C11.858 6.27535 11.9042 6.51679 11.9396 6.75938C12.0287 7.75935 12.1188 8.75932 12.2079 9.75928C12.4548 12.3446 11.6165 14.4209 9.64897 15.9891C9.50943 16.1008 9.44824 16.4083 9.45361 16.6224C9.53948 20.6724 9.63931 24.7223 9.73913 28.7723C9.75953 29.6037 9.7971 30.4351 9.82608 31.2665C9.85721 32.6754 9.88726 34.0842 9.91839 35.4919V35.4965ZM4.7983 17.144C4.7983 18.7408 4.82728 20.3489 4.79293 21.9559C4.66842 27.7519 4.5117 33.5478 4.40329 39.3449C4.3947 39.8186 4.55357 40.3665 4.80367 40.7583C5.21048 41.3972 6.01875 41.5612 6.67567 41.2935C7.441 40.9815 7.81239 40.3517 7.78878 39.3597C7.61918 32.1241 7.44636 24.8886 7.27247 17.652C7.26818 17.472 7.24349 17.2932 7.23061 17.144H4.79723H4.7983ZM9.98279 11.3207C7.48715 11.3207 5.02586 11.3207 2.56457 11.3207C2.47655 11.3207 2.3896 11.3344 2.30266 11.3424C2.33271 12.9369 4.02331 14.6748 5.59905 14.8377C8.10113 15.0962 9.76812 13.1487 9.98279 11.3196V11.3207Z" fill="white"/>
<path d="M40.5154 10.4171C40.8566 8.92911 41.202 7.44114 41.5388 5.95203C42.1713 3.15611 43.7957 1.36508 46.436 0.624516C46.8822 0.499189 47.3608 0.475265 47.8254 0.462732C48.4839 0.444503 48.9084 0.861493 48.9863 1.54623C49.0037 1.69548 48.9993 1.8493 48.9993 2.00083C48.9993 14.4321 49.0004 26.8622 48.9993 39.2934C48.9993 41.4878 47.8785 43.1068 46.0223 43.6172C43.747 44.2427 41.3775 42.5063 41.2389 40.0329C41.175 38.8844 41.293 37.7246 41.3396 36.5704C41.397 35.1508 41.4641 33.7324 41.5269 32.3139C41.6731 29.5647 41.8269 26.8155 41.9536 24.0663C41.9698 23.704 41.841 23.3348 41.7792 22.9679C41.4749 22.4689 41.2421 21.897 40.8555 21.4857C39.387 19.9248 38.9213 18.095 39.3556 15.977C39.518 15.184 39.6707 14.3899 39.8288 13.5958C40.0573 12.5374 40.2858 11.4778 40.5154 10.4193V10.4171ZM46.7836 2.93394C45.0714 3.52184 44.0925 4.68281 43.7123 6.43283C42.9943 9.73917 42.2839 13.0466 41.5432 16.3473C41.2291 17.7475 41.5204 18.9222 42.507 19.9237C43.734 21.1689 44.2657 22.6945 44.1672 24.4912C43.9722 28.0482 43.8066 31.6075 43.6289 35.1668C43.5575 36.6057 43.4762 38.0436 43.4178 39.4826C43.3831 40.3393 43.8055 41.0309 44.4812 41.2918C45.1646 41.5561 45.9768 41.3898 46.3678 40.7427C46.6201 40.3245 46.7663 39.7606 46.7674 39.2615C46.789 27.3567 46.7836 15.4518 46.7836 3.5469V2.9328V2.93394Z" fill="white"/>
<path d="M42.2911 23.33C42.3527 23.6915 42.4826 24.0576 42.4653 24.4157C42.3397 27.1346 42.185 29.8524 42.0389 32.5691C41.5499 33.3068 41.0868 34.0659 40.5674 34.78C37.3516 39.1996 33.0874 41.8588 27.8407 42.681C22.1136 43.5787 16.9675 42.0221 12.4544 38.2648C11.5325 37.4978 10.7437 36.5573 9.89322 35.6968C9.86185 34.3036 9.83155 32.9103 9.80017 31.5182C10.1973 32.1186 10.5781 32.729 10.9926 33.3158C15.1205 39.1602 22.146 41.7214 28.6598 40.1998C32.8948 39.2109 36.3226 36.8772 38.9108 33.2347C41.0035 30.2906 42.106 26.9792 42.29 23.3289L42.2911 23.33Z" fill="white"/>
<path d="M40.8333 10.3082C40.6091 11.3813 40.3848 12.4557 40.1594 13.5288C40.017 13.2862 39.8693 13.0483 39.7332 12.8022C38.0091 9.67515 35.6685 7.26315 32.6679 5.62165C29.4068 3.8369 25.9693 3.29513 22.3702 3.90506C18.4756 4.56582 15.2007 6.49149 12.5157 9.61739C12.4275 8.60314 12.3382 7.58891 12.25 6.57466C15.0625 3.93163 18.2779 2.19771 21.961 1.55312C25.7567 0.888896 29.4132 1.4353 32.9177 3.14495C36.1671 4.73101 38.7882 7.14532 40.8333 10.3082Z" fill="white"/>
<path d="M12.2503 22.1456C12.2025 14.7812 17.9515 8.5838 24.9226 8.62903C31.7098 8.67313 37.5046 14.2487 37.5662 22.0461C37.6268 29.7055 31.781 35.5299 24.9832 35.5785C17.9929 35.6282 12.2981 29.6275 12.2503 22.1467V22.1456ZM24.8471 33.239C30.5994 33.3136 35.3282 28.3702 35.3888 22.2168C35.4494 16.051 30.8172 11.0273 25.0065 10.9549C19.2703 10.8848 14.5233 15.8351 14.4479 21.9681C14.3703 28.1836 18.9642 33.1621 24.8471 33.239Z" fill="white"/>
</svg>
