<svg width="46" height="50" viewBox="0 0 46 50" fill="none" xmlns="http://www.w3.org/2000/svg">
<path d="M21.9416 17.177C21.967 17.0668 21.9801 17.035 21.981 17.0032C22.0327 15.6841 22.0431 14.96 20.2419 15.0464C19.3869 15.0881 18.5187 15.1289 17.7257 14.6451C16.5926 13.9548 16.0261 12.5831 16.3258 11.2004C16.5982 9.94091 17.6975 8.90888 18.9462 8.88504C21.4032 8.83836 23.8621 8.85922 26.319 8.85127C26.491 8.85127 26.6648 8.85524 26.8339 8.82644C27.3986 8.73208 27.75 8.29602 27.7265 7.73879C27.703 7.17758 27.3225 6.75345 26.7597 6.72265C26.2288 6.69286 25.6952 6.71371 25.1634 6.71173C23.2053 6.70378 22.0045 5.44032 21.9886 3.37031C21.9839 2.79122 21.9782 2.21114 21.9914 1.63205C22.0074 0.958603 22.3945 0.524536 22.9516 0.524536C23.5107 0.524536 23.895 0.959596 23.9081 1.63404C23.9203 2.23001 23.9081 2.82598 23.9119 3.42196C23.9175 4.26327 24.2896 4.66158 25.092 4.67946C25.7337 4.69337 26.3764 4.67151 27.0162 4.71224C28.4237 4.80263 29.5437 6.04722 29.6367 7.58781C29.7288 9.12244 28.7572 10.5051 27.3695 10.7872C27.0491 10.8527 26.7174 10.8786 26.3905 10.8796C24.0425 10.8875 21.6935 10.8816 19.3456 10.8855C18.7029 10.8865 18.2857 11.2064 18.1889 11.7447C18.063 12.443 18.5244 12.9943 19.2807 13.0211C19.9065 13.0429 20.5341 13.0102 21.1589 13.0479C22.6688 13.1383 23.8151 14.367 23.8987 15.9652C23.9184 16.3436 23.9015 16.7241 23.9015 17.2028C24.6804 17.2028 25.4265 17.2028 26.1725 17.2028C29.382 17.2078 32.5944 17.1234 35.8003 17.2426C39.3847 17.3757 42.2326 19.1219 44.1794 22.2944C46.7143 26.4265 46.4625 31.3671 43.6457 35.2916C43.3723 35.672 43.0801 36.0564 42.7305 36.3524C42.365 36.6623 42.2974 37.014 42.2965 37.4689C42.2927 39.2052 42.3866 40.9573 42.2053 42.6757C41.8511 46.0171 39.2739 48.6027 36.1197 48.994C32.5437 49.437 29.1876 47.0005 28.4444 43.3104C28.2254 42.2257 28.3006 41.0735 28.2527 39.9521C28.2348 39.524 28.2499 39.0949 28.2499 38.63H17.6618C17.6618 39.1674 17.6797 39.7068 17.6581 40.2451C17.6167 41.2513 17.6816 42.2873 17.4739 43.2568C16.8811 46.03 15.234 47.9074 12.6652 48.7089C9.97522 49.5483 7.56051 48.8927 5.5611 46.7551C4.2006 45.301 3.59364 43.526 3.60022 41.4967C3.60491 40.0564 3.61149 38.6161 3.58894 37.1769C3.58518 36.9623 3.4809 36.6912 3.33432 36.5461C-2.29277 30.9549 -0.535769 21.0786 6.63598 18.0104C7.97486 17.4373 9.36355 17.1989 10.803 17.1999C14.3564 17.2028 17.9099 17.1869 21.4643 17.179C21.6174 17.179 21.7715 17.179 21.9425 17.179L21.9416 17.177ZM26.646 19.2232C26.646 19.9066 26.6573 20.5343 26.6441 21.1601C26.5887 23.8241 24.2717 25.613 21.858 24.8611C20.2729 24.3674 19.2741 22.8725 19.2478 20.9426C19.2403 20.3843 19.2469 19.8261 19.2469 19.2927C19.168 19.255 19.1398 19.2291 19.1125 19.2291C15.9979 19.246 12.8794 19.1676 9.76944 19.3106C6.30806 19.4695 3.13231 22.3064 2.26321 25.8643C1.37062 29.5196 2.24254 32.6723 4.87052 35.2419C5.33373 35.6949 5.55829 36.1548 5.54325 36.8322C5.50661 38.4701 5.51976 40.1091 5.53855 41.747C5.5611 43.674 6.40673 45.147 7.9091 46.1751C11.1619 48.4 15.5243 46.0261 15.7104 41.9297C15.7714 40.5759 15.7263 39.2161 15.7338 37.8593C15.7385 36.9226 16.0702 36.571 16.9562 36.57C20.9485 36.568 24.9407 36.568 28.9329 36.57C29.8462 36.57 30.1694 36.9176 30.1722 37.891C30.1769 39.2151 30.145 40.5401 30.1882 41.8632C30.2981 45.2453 33.3762 47.6789 36.4824 46.8664C38.8144 46.2565 40.3581 44.1497 40.3807 41.5195C40.3948 39.8816 40.3957 38.2427 40.376 36.6037C40.3703 36.0962 40.5216 35.7177 40.8871 35.3929C41.2094 35.1069 41.5185 34.794 41.7891 34.4543C44.0704 31.5906 44.651 28.3565 43.3102 24.9068C42.0014 21.5405 39.5116 19.6006 36.0596 19.3076C34.0057 19.1338 31.9302 19.2381 29.864 19.2232C28.8174 19.2162 27.7707 19.2232 26.646 19.2232ZM21.2003 19.2709C21.2003 20.0238 21.1561 20.7211 21.2115 21.4084C21.282 22.2736 21.9688 22.9222 22.7712 22.9818C23.692 23.0503 24.5019 22.5298 24.6447 21.6369C24.7678 20.8701 24.7312 20.0744 24.7659 19.2709H21.2003Z" fill="white"/>
<path d="M5.64748 28.3715C5.64091 25.4965 7.88904 23.2079 10.7243 23.2022C13.5483 23.1965 15.8086 25.4908 15.8123 28.3667C15.8161 31.2302 13.5417 33.5493 10.7318 33.5464C7.90779 33.5435 5.65404 31.2493 5.64748 28.3715ZM7.87121 29.7442C8.37767 29.2416 8.83912 28.7856 9.21428 28.4133C8.76691 27.9612 8.30171 27.4918 7.83745 27.0235C7.46698 27.9012 7.42478 28.8284 7.87121 29.7452V29.7442ZM13.6008 26.9844C13.1122 27.4795 12.6442 27.9526 12.2531 28.3486C12.6807 28.7732 13.1412 29.2311 13.6074 29.6947C14.0238 28.8265 14.0022 27.904 13.6008 26.9844ZM12.0814 31.3016C11.5928 30.8104 11.1173 30.3335 10.6961 29.9098C10.2807 30.3182 9.81547 30.7761 9.30525 31.2778C10.2666 31.6796 11.1932 31.6862 12.0814 31.3007V31.3016ZM12.1246 25.4822C11.1492 25.07 10.2497 25.0462 9.3681 25.4803C9.84548 25.9591 10.3032 26.4199 10.7346 26.853C11.1576 26.4351 11.6106 25.9887 12.1246 25.4822Z" fill="white"/>
<path d="M35.0124 24.2153C35.006 25.8376 33.7189 27.1816 32.1716 27.1806C30.6314 27.1797 29.3661 25.8329 29.3652 24.1934C29.3643 22.5377 30.606 21.2176 32.1707 21.2128C33.7489 21.2081 35.0196 22.5501 35.0124 24.2153ZM33.1366 24.1724C33.1303 23.5757 32.7285 23.1764 32.1489 23.1878C31.6156 23.1983 31.2101 23.6282 31.2074 24.1867C31.2047 24.7472 31.6518 25.2133 32.1879 25.2085C32.743 25.2038 33.1439 24.7663 33.1366 24.1724Z" fill="white"/>
<path d="M35.3887 29.976C35.3851 28.2068 36.6737 26.7588 38.2299 26.7831C39.7834 26.8075 41.0376 28.2373 41.0358 29.9821C41.034 31.7126 39.7426 33.1556 38.2018 33.1485C36.6402 33.1403 35.3923 31.734 35.3887 29.977V29.976ZM38.2082 31.0419C38.7487 31.0409 39.2012 30.5369 39.1894 29.9495C39.1776 29.3541 38.7206 28.8744 38.1782 28.8856C37.6495 28.8968 37.2378 29.3642 37.2342 29.9567C37.2306 30.5704 37.655 31.0429 38.2082 31.0419Z" fill="white"/>
<path d="M25.7547 33.1434C25.4349 33.1434 25.1142 33.155 24.7954 33.1415C24.1395 33.1127 23.7253 32.7271 23.7186 32.155C23.7128 31.6224 24.1241 31.2051 24.7482 31.1801C25.4513 31.1532 26.1563 31.1503 26.8585 31.1839C27.4951 31.2137 27.8765 31.6253 27.8592 32.1791C27.8419 32.7338 27.4441 33.1078 26.8103 33.1396C26.4597 33.1578 26.1062 33.1425 25.7547 33.1434Z" fill="white"/>
<path d="M20.1279 33.1427C19.7918 33.1427 19.4556 33.1571 19.1205 33.1398C18.4877 33.1071 18.0889 32.7319 18.0716 32.1767C18.0543 31.634 18.4511 31.2078 19.0752 31.1818C19.7937 31.151 20.5151 31.151 21.2336 31.1866C21.8404 31.2165 22.2189 31.6273 22.2122 32.1555C22.2055 32.6953 21.8318 33.0859 21.2317 33.1341C20.8657 33.1629 20.4959 33.1398 20.1289 33.1398C20.1289 33.1408 20.1289 33.1417 20.1289 33.1427H20.1279Z" fill="white"/>
</svg>
