<svg width="43" height="52" viewBox="0 0 43 52" fill="none" xmlns="http://www.w3.org/2000/svg">
<path d="M0.0107595 26.3237C0.0107595 19.3425 0.017597 12.3613 1.49381e-05 5.38118C-0.00193863 4.69596 0.187557 4.17565 0.664228 3.70757C1.45933 2.92608 2.22024 2.10464 2.98116 1.28628C3.3201 0.921652 3.69421 0.745483 4.19139 0.745483C15.7321 0.754702 27.2728 0.753677 38.8145 0.745483C39.2892 0.745483 39.6584 0.898095 39.9876 1.25043C40.8188 2.14049 41.6608 3.01929 42.5097 3.89194C42.8447 4.23608 43.001 4.62734 43 5.12307C42.9951 19.2903 42.9951 33.4565 43 47.6238C43 48.1 42.8525 48.4821 42.5321 48.8129C41.7204 49.6517 40.9019 50.4834 40.1165 51.3489C39.7024 51.8057 39.2394 51.987 38.6435 51.986C32.1323 51.9737 25.6211 51.9788 19.1108 51.9788C14.2112 51.9788 9.3117 51.9716 4.41215 51.988C3.78017 51.9901 3.28885 51.8037 2.8532 51.3171C2.11768 50.4967 1.35188 49.705 0.576317 48.9256C0.169975 48.5179 0.003922 48.0601 0.00489878 47.4711C0.0166202 40.4223 0.0117363 33.3725 0.0117363 26.3237H0.0107595ZM1.978 26.3688C1.978 33.1779 1.98093 39.987 1.97019 46.7972C1.97019 47.2417 2.08252 47.5736 2.39704 47.8757C2.90009 48.3592 3.38946 48.8641 3.84464 49.3977C4.17577 49.7859 4.53913 49.9283 5.03729 49.9273C10.8316 49.9109 16.6259 49.917 22.4192 49.917C27.644 49.917 32.8678 49.9139 38.0926 49.9232C38.4794 49.9232 38.7715 49.8187 39.0391 49.5176C39.5266 48.9675 40.0267 48.4278 40.559 47.9259C40.9185 47.5869 41.0376 47.2141 41.0367 46.7153C41.024 39.0693 41.0279 31.4244 41.0279 23.7785C41.0279 17.8226 41.024 11.8666 41.0347 5.91071C41.0347 5.4836 40.9234 5.16916 40.6225 4.87725C40.0853 4.35592 39.5676 3.81102 39.0694 3.24872C38.793 2.93735 38.499 2.78679 38.0868 2.80932C37.5183 2.84005 36.9478 2.81751 36.3784 2.81751C25.9131 2.81751 15.4479 2.81956 4.98259 2.80932C4.54304 2.80932 4.21093 2.92096 3.91008 3.26818C3.43927 3.81 2.94502 4.33338 2.42635 4.82399C2.08056 5.15175 1.96726 5.51228 1.96823 5.99265C1.98093 12.7854 1.97703 19.5771 1.97703 26.3698L1.978 26.3688Z" fill="white"/>
<path d="M12.808 31.3644C13.3995 30.3931 13.9435 29.5277 14.4527 28.6379C14.5458 28.4751 14.5127 28.2097 14.5127 27.9921C14.5163 25.2808 14.5136 22.5696 14.5172 19.8584C14.5172 19.5879 14.527 19.3143 14.5646 19.0489C14.6362 18.5383 15.0263 18.16 15.4603 18.1488C15.9095 18.1366 16.3292 18.52 16.4098 19.0417C16.4482 19.2899 16.4608 19.5472 16.4617 19.7994C16.4652 22.6296 16.4581 25.4598 16.4679 28.289C16.4697 28.9206 16.3418 29.4687 16.0026 29.9904C15.276 31.1071 14.5959 32.2623 13.889 33.3963C13.3082 34.3288 12.306 34.338 11.7306 33.4146C10.9646 32.184 10.1878 30.9596 9.46212 29.6986C9.27151 29.368 9.16771 28.9124 9.16503 28.5128C9.14086 25.5473 9.14892 22.5818 9.15608 19.6163C9.15608 19.3489 9.17666 19.0672 9.25362 18.818C9.38516 18.3888 9.8478 18.0868 10.221 18.1621C10.6532 18.2495 10.9619 18.52 11.0406 19.0356C11.0809 19.3011 11.0943 19.5746 11.0952 19.8441C11.0988 22.5889 11.089 25.3347 11.1095 28.0795C11.1122 28.3928 11.2196 28.7426 11.3699 29.0091C11.8022 29.7769 12.2818 30.5101 12.8089 31.3654L12.808 31.3644Z" fill="white"/>
<path d="M21.685 39.9023C17.4381 39.9023 13.1912 39.9023 8.94529 39.9001C8.68154 39.9001 8.41381 39.8945 8.156 39.8424C7.64931 39.7404 7.32209 39.2768 7.31911 38.7056C7.31614 38.1267 7.63245 37.6675 8.14311 37.561C8.40092 37.5067 8.66864 37.489 8.93141 37.4878C17.458 37.4845 25.9845 37.4845 34.511 37.4878C34.7738 37.4878 35.0405 37.5067 35.2993 37.5588C35.815 37.6631 36.1352 38.1122 36.1382 38.6901C36.1412 39.2579 35.815 39.7348 35.3142 39.8402C35.0564 39.8945 34.7887 39.9001 34.5249 39.9001C30.2453 39.9034 25.9657 39.9023 21.686 39.9023H21.685Z" fill="white"/>
<path d="M21.685 15.0202C17.4381 15.0202 13.1912 15.0202 8.94529 15.018C8.68154 15.018 8.41381 15.0124 8.156 14.9603C7.64931 14.8583 7.32209 14.3947 7.31911 13.8235C7.31614 13.2446 7.63245 12.7854 8.14311 12.679C8.40092 12.6246 8.66864 12.6069 8.93141 12.6058C17.458 12.6024 25.9845 12.6024 34.511 12.6058C34.7738 12.6058 35.0405 12.6246 35.2993 12.6767C35.815 12.781 36.1352 13.2302 36.1382 13.808C36.1412 14.3758 35.815 14.8527 35.3142 14.9581C35.0564 15.0124 34.7887 15.018 34.5249 15.018C30.2453 15.0213 25.9657 15.0202 21.686 15.0202H21.685Z" fill="white"/>
<path d="M34.3816 13.3158C30.1694 13.3138 25.9573 13.3144 21.7452 13.3144C17.5162 13.3144 13.2882 13.3138 9.0592 13.3164C8.74686 13.3171 8.42956 13.3258 8.12317 13.363C7.65615 13.4196 7.3448 13.6818 7.32101 13.9946C7.29423 14.342 7.54906 14.6089 8.04484 14.6954C8.32843 14.7446 8.63184 14.7626 8.92633 14.7626C17.4656 14.7653 26.0059 14.7653 34.5462 14.7626C34.8089 14.7626 35.0776 14.7493 35.3325 14.7107C35.8679 14.6302 36.1535 14.3713 36.1376 14.0166C36.1227 13.6705 35.7985 13.4129 35.269 13.3557C34.9775 13.3244 34.678 13.3158 34.3816 13.3158Z" fill="white"/>
<path d="M26.5333 26.1182C26.5333 23.9953 26.5304 21.8713 26.5342 19.7483C26.5361 18.4946 26.8683 18.1396 28.0424 18.1487C29.0265 18.1569 30.0164 18.1242 30.9938 18.2222C32.6977 18.3946 34.5304 20.1289 34.287 22.8619C34.118 24.7543 32.439 26.3886 30.4841 26.4559C30.024 26.4722 29.561 26.4845 29.1019 26.4538C28.7182 26.4294 28.6036 26.5916 28.6065 26.9823C28.618 28.7829 28.6141 30.5835 28.6084 32.384C28.6084 32.6717 28.596 32.9645 28.5445 33.2451C28.4547 33.7296 28.0386 34.0867 27.5976 34.101C27.1432 34.1163 26.7022 33.7541 26.6029 33.2451C26.5514 32.9819 26.5371 32.7064 26.5361 32.4361C26.5313 30.3294 26.5333 28.2238 26.5333 26.1172V26.1182ZM28.6113 22.3028H28.6132C28.6132 22.8282 28.617 23.3536 28.6113 23.88C28.6084 24.1575 28.7211 24.2768 28.9845 24.2707C29.4599 24.2595 29.9362 24.2727 30.4125 24.2666C31.4653 24.2523 32.2395 23.423 32.249 22.3049C32.2586 21.2021 31.473 20.3594 30.4163 20.3441C29.9724 20.338 29.5267 20.3604 29.0838 20.337C28.7373 20.3186 28.5912 20.4482 28.6056 20.8287C28.6246 21.3194 28.6103 21.8121 28.6103 22.3038L28.6113 22.3028Z" fill="white"/>
<path d="M20.5855 26.1261C20.5855 24.0172 20.5839 21.9083 20.5881 19.7994C20.5881 19.5288 20.599 19.2532 20.641 18.9878C20.7149 18.5203 21.0962 18.159 21.4851 18.1488C21.8883 18.1386 22.2856 18.5101 22.3612 19.0021C22.4016 19.2675 22.4125 19.5431 22.4125 19.8136C22.4158 24.0141 22.4158 28.2156 22.4125 32.4161C22.4125 32.6866 22.4007 32.9622 22.3579 33.2266C22.2739 33.7411 21.8984 34.1055 21.4944 34.1014C21.0862 34.0963 20.7241 33.7349 20.641 33.2123C20.599 32.9479 20.5889 32.6723 20.5881 32.4018C20.5839 30.3102 20.5855 28.2177 20.5855 26.1261Z" fill="white"/>
<path d="M17.5056 47.1538C17.2336 46.9517 16.8802 46.7722 16.6534 46.5003C16.365 46.1557 16.4288 45.7136 16.7349 45.4089C17.5474 44.5996 18.382 43.8056 19.2561 43.0547C19.6998 42.6731 20.2966 42.7501 20.7017 43.1194C21.0926 43.4753 21.1828 44.0508 20.7832 44.4642C19.9861 45.2858 19.1328 46.0603 18.2796 46.8327C18.1221 46.9753 17.8557 47.0143 17.5067 47.1538H17.5056Z" fill="white"/>
<path d="M25.3871 42.803C26.2409 42.7965 26.7563 43.5272 26.436 44.1227C26.3129 44.3522 26.1117 44.5538 25.9166 44.7414C25.3611 45.2771 24.8005 45.8091 24.223 46.3242C23.7235 46.7694 23.115 46.7806 22.7066 46.384C22.3062 45.9948 22.3112 45.4451 22.7637 45.0037C23.4193 44.3634 24.0889 43.7354 24.7785 43.1269C24.9727 42.9551 25.256 42.8702 25.3861 42.803H25.3871Z" fill="white"/>
<path d="M17.467 10.4139C17.1575 10.2205 16.726 10.085 16.5679 9.81397C16.4108 9.54607 16.4651 9.12819 16.552 8.80444C16.613 8.57999 16.8728 8.3907 17.0683 8.20865C17.711 7.60666 18.3526 7.0026 19.0191 6.42336C19.5579 5.95583 20.2176 5.95066 20.6864 6.36544C21.1416 6.7678 21.1789 7.36462 20.6898 7.84456C19.9216 8.59757 19.114 9.31748 18.2973 10.026C18.1052 10.1925 17.8093 10.2587 17.4659 10.4139H17.467Z" fill="white"/>
<path d="M23.3097 10.4139C23.0324 10.2174 22.6443 10.0788 22.5052 9.80788C22.366 9.539 22.4067 9.115 22.5001 8.79959C22.5763 8.54415 22.8363 8.33732 23.0354 8.12946C23.589 7.55137 24.1426 6.97121 24.7185 6.41795C25.201 5.95361 25.8003 5.95258 26.2178 6.37037C26.623 6.77473 26.6525 7.37143 26.2107 7.85024C25.5189 8.60207 24.7927 9.32183 24.0573 10.0302C23.8846 10.1957 23.6174 10.2598 23.3086 10.4129L23.3097 10.4139Z" fill="white"/>
</svg>
