<svg width="44" height="47" viewBox="0 0 44 47" fill="none" xmlns="http://www.w3.org/2000/svg">
<path d="M6.20861 35.4177C4.56558 35.4136 2.92254 35.4106 1.27855 35.4055C0.347215 35.4025 0 35.0447 0 34.0747C0 23.1661 0 12.2566 0 1.34811C0 0.3426 0.346254 0 1.36008 0C12.3213 0 23.2825 0 34.2437 0C37.0521 0 39.8596 0 42.668 0C43.6588 0 43.9993 0.350707 43.9993 1.3775C44.0002 12.2526 44.0002 23.1276 43.9993 34.0037C43.9993 35.0731 43.6741 35.4045 42.644 35.4065C41.0326 35.4096 39.4212 35.4136 37.8108 35.4167C37.0061 34.475 36.1093 33.6875 34.8796 33.4493C34.8403 33.4422 34.8163 33.3499 34.7847 33.2982H42.0215V22.93H23.0331C23.0178 22.9624 22.9909 22.9918 22.99 23.0222C22.9861 24.6237 22.9842 26.2242 22.9813 27.8257C22.3253 27.8237 21.6683 27.8227 21.0122 27.8207C21.0122 26.134 21.0122 24.4474 21.0122 22.7617C21.0122 20.9707 21.1417 20.8338 22.8375 20.8338C24.1889 20.8338 25.5404 20.8338 26.9609 20.8338C26.7335 18.3525 27.0932 16.1357 29.2379 14.6923C27.0568 12.5293 27.099 9.18233 29.0077 7.09834C30.7332 5.21403 33.603 5.03766 35.6172 6.73039C36.5687 7.53013 37.1336 8.57314 37.3504 9.83306C37.6804 11.7488 37.0608 13.3331 35.7851 14.6802C36.7366 15.3765 37.526 16.2077 37.7907 17.3531C38.0477 18.465 38.0832 19.6337 38.2194 20.8024H42.0177V2.11946H1.9797V33.3307H2.52066C4.48309 33.3307 6.44647 33.3276 8.4089 33.3337C8.66212 33.3337 8.91534 33.3783 9.16856 33.4016C7.96578 33.7209 6.98456 34.4031 6.20765 35.4197L6.20861 35.4177ZM28.907 20.8095H36.116C36.116 20.1871 36.1275 19.585 36.1131 18.984C36.0853 17.8041 35.5482 16.9233 34.5852 16.377C33.4399 15.7262 32.1902 15.8529 30.997 16.1327C29.7539 16.4236 28.9482 17.6318 28.9089 18.989C28.8916 19.5779 28.906 20.1669 28.906 20.8095H28.907ZM32.4741 13.8622C34.1133 13.8662 35.4542 12.5191 35.4638 10.8588C35.4743 9.09921 34.2025 7.65785 32.6199 7.63555C30.9404 7.61122 29.5698 8.98062 29.565 10.6855C29.5611 12.4968 30.8071 13.8571 32.4741 13.8622Z" fill="white"/>
<path d="M21.0128 27.8186C21.6689 27.8207 22.3259 27.8217 22.982 27.8237C24.1675 28.1379 25.1573 28.7876 25.9323 29.8377C26.1433 29.6026 26.3045 29.4171 26.4714 29.2397C27.9197 27.696 30.2543 27.2784 32.069 28.3102C33.9307 29.3684 34.8707 31.0318 34.7853 33.2962C34.817 33.3489 34.841 33.4401 34.8803 33.4472C36.1099 33.6854 37.0067 34.473 37.8115 35.4147C38.4349 36.4252 38.8138 37.5078 38.7409 38.7413C38.7351 38.8427 38.9682 39.011 39.1169 39.0627C40.922 39.6992 42.0778 40.9774 42.565 42.9225C42.8144 43.9189 42.6734 44.896 42.3895 45.8559C42.2686 46.2634 41.9665 46.4793 41.5627 46.5147C41.3881 46.53 41.2117 46.5229 41.0361 46.5229C31.1568 46.5229 21.2776 46.5229 11.3983 46.5229C8.54096 46.5229 5.6846 46.5229 2.82728 46.5229C1.93718 46.5229 1.71945 46.3414 1.49597 45.4251C0.804421 42.588 2.30645 39.8269 4.95947 39.0241C5.08608 38.9856 5.25585 38.7657 5.25201 38.6349C5.21844 37.4399 5.56278 36.3806 6.20829 35.4167C6.98521 34.4 7.96642 33.7179 9.1692 33.3986C9.17879 33.2323 9.19606 33.0651 9.19702 32.8989C9.20852 29.2134 12.9176 26.6682 16.0799 28.2271C16.8204 28.592 17.4486 29.2134 18.1574 29.7384C18.848 28.7795 19.836 28.1399 21.0128 27.8176V27.8186ZM14.1204 35.3934C14.8253 34.4517 15.7049 33.8517 16.7561 33.508C16.8818 33.4665 17.0323 33.2496 17.04 33.1056C17.1254 31.4768 16.0108 30.077 14.4829 29.8631C13.0125 29.6573 11.5537 30.7287 11.2371 32.2785C11.1681 32.6161 11.1259 33.0114 11.2333 33.3175C11.2956 33.4959 11.6755 33.5587 11.9191 33.655C12.8073 34.0078 13.5055 34.6311 14.1194 35.3944L14.1204 35.3934ZM29.9186 35.3731C30.0481 35.2129 30.1641 35.0568 30.2936 34.9129C30.8777 34.2662 31.5683 33.7716 32.3855 33.5547C32.8104 33.4422 32.8613 33.2161 32.843 32.8441C32.7692 31.3217 31.5923 29.9857 30.1977 29.855C28.64 29.709 27.3058 30.7601 26.9845 32.385C26.8176 33.2303 26.8809 33.282 27.5965 33.6256C28.1422 33.8871 28.6515 34.2429 29.1493 34.6007C29.4198 34.7943 29.6318 35.0802 29.9186 35.3731ZM24.8936 33.43C25.0576 31.9896 24.5416 30.9314 23.4213 30.2442C22.3767 29.6036 21.2891 29.6664 20.3165 30.4155C19.3669 31.1473 18.9008 32.1539 19.1012 33.427C20.2925 33.7239 21.2267 34.3879 21.9988 35.3974C22.7633 34.4193 23.6889 33.7118 24.8936 33.429V33.43ZM10.2176 40.9206C10.9254 39.9729 11.8059 39.2917 12.9368 39.0028C13.024 38.9805 13.1104 38.7434 13.1161 38.6025C13.1593 37.5291 12.7401 36.6695 11.9373 36.037C10.9858 35.2869 9.93844 35.1815 8.87858 35.7319C7.80049 36.2924 7.25664 37.2554 7.20965 38.5224C7.19909 38.8133 7.28734 38.9805 7.61441 39.0789C8.08056 39.2198 8.54192 39.4509 8.94188 39.7418C9.39364 40.0692 9.77635 40.505 10.2176 40.9196V40.9206ZM18.0606 40.9723C18.7857 39.9901 19.6643 39.3029 20.798 39.0099C20.8814 38.9887 20.9697 38.7869 20.9773 38.6643C21.057 37.3912 20.5256 36.4394 19.506 35.8191C18.4586 35.1825 17.3834 35.2413 16.3916 35.961C15.4008 36.6796 14.9874 37.6993 15.1639 38.9917C16.3677 39.2522 17.2827 39.9749 18.0606 40.9723ZM25.9045 40.9186C26.174 40.6459 26.3659 40.3824 26.6143 40.2161C27.2262 39.8066 27.8401 39.3809 28.5029 39.086C28.8319 38.939 28.9076 38.794 28.8961 38.4788C28.8395 36.8925 27.7173 35.5748 26.2882 35.4248C24.7372 35.2626 23.3915 36.2874 23.0434 37.896C22.8659 38.716 22.9455 38.8802 23.6716 39.162C24.5761 39.5127 25.3012 40.1239 25.9036 40.9186H25.9045ZM33.8214 40.9693C34.582 39.9729 35.4491 39.2998 36.5636 39.0099C36.6586 38.9856 36.7583 38.7646 36.7679 38.6288C36.8715 37.0993 35.6898 35.6235 34.2223 35.4288C32.7049 35.2271 31.2173 36.3198 30.9372 37.8433C30.7636 38.7849 30.7933 38.8579 31.6038 39.1802C32.491 39.533 33.1893 40.1503 33.8223 40.9703L33.8214 40.9693ZM9.13275 44.4024C9.31595 43.2702 8.74909 42.0427 7.7813 41.4122C6.80201 40.7736 5.42946 40.8142 4.53744 41.5085C3.61762 42.2241 3.1131 43.4364 3.3481 44.4034H9.13179L9.13275 44.4024ZM26.9471 44.3801H32.8315C32.8939 43.0391 32.398 42.0336 31.3583 41.3818C30.308 40.724 29.2078 40.7706 28.2122 41.5085C27.2991 42.1856 26.8426 43.1485 26.9471 44.3801ZM34.8726 44.3872H40.6956C40.7973 43.0421 40.2822 42.0488 39.255 41.3838C38.2239 40.7169 37.1372 40.7736 36.1454 41.474C35.1949 42.145 34.7163 43.111 34.8726 44.3872ZM17.0362 44.4054C17.1446 42.9985 16.5988 42.0042 15.5217 41.3352C14.5529 40.7331 13.1497 40.8588 12.3306 41.5835C11.5019 42.3164 11.0463 43.2144 11.2352 44.4054H17.0352H17.0362ZM19.0792 44.3922H24.8964C25.0451 43.111 24.5703 42.1451 23.6198 41.472C22.606 40.7534 21.5001 40.7361 20.468 41.4152C19.4657 42.0741 18.9574 43.0624 19.0792 44.3932V44.3922Z" fill="white"/>
<path d="M18.3869 13.1962C18.3869 13.9129 18.3869 14.5666 18.3869 15.2194C18.3869 15.9948 18.3763 16.7713 18.3898 17.5467C18.4003 18.1538 17.984 18.7833 17.2512 18.7316C16.6 18.685 15.9439 18.7255 15.2898 18.7296C15.26 18.7296 15.2294 18.7458 15.1402 18.7711C15.1315 18.9262 15.1133 19.1026 15.1133 19.2789C15.1104 20.4932 15.1152 21.7076 15.1114 22.9209C15.1085 23.9274 14.7651 24.2872 13.8165 24.2872C11.3592 24.2872 8.90182 24.2882 6.44446 24.2872C5.62918 24.2872 5.26374 23.9203 5.26278 23.079C5.25991 17.649 5.25895 12.2191 5.26278 6.7902C5.26278 5.93674 5.63014 5.55359 6.43487 5.55257C10.9026 5.54953 15.3704 5.54953 19.8381 5.55257C20.6198 5.55257 20.9891 5.93268 20.9929 6.75371C21.0015 8.50726 21.0015 10.2608 20.9929 12.0144C20.9891 12.7594 20.661 13.1405 19.9589 13.1902C19.4554 13.2256 18.947 13.1972 18.3859 13.1972L18.3869 13.1962ZM7.23289 11.0737H19.0132V7.669H7.23289V11.0737ZM7.2022 13.255C7.2022 14.218 7.22425 15.1566 7.1926 16.0931C7.17726 16.5361 7.29523 16.6648 7.72206 16.6628C10.3501 16.6466 12.9792 16.6628 15.6073 16.6679C15.8576 16.6679 16.107 16.6679 16.364 16.6679V13.255H7.2022ZM13.1144 18.7377C11.2019 18.7377 9.33823 18.7336 7.47459 18.7488C7.38347 18.7488 7.21754 18.912 7.21563 19.0022C7.1974 20.0594 7.20411 21.1176 7.20411 22.1921H13.1144V18.7377Z" fill="white"/>
</svg>
