<svg width="46" height="50" viewBox="0 0 46 50" fill="none" xmlns="http://www.w3.org/2000/svg">
<path d="M29.4579 25.8059V30.1948C29.9858 30.1948 30.4897 30.1899 30.9928 30.1957C31.849 30.2054 32.1892 30.5641 32.1911 31.463C32.1947 32.9519 32.192 34.4407 32.192 35.9617H37.2463C37.2463 32.5758 37.2463 29.1656 37.2463 25.7554C37.2509 25.249 37.2904 24.7388 37.8036 24.5104C38.0427 24.4045 38.3287 24.4142 38.5926 24.3724C40.1679 24.3724 41.7432 24.3744 43.3186 24.3754C44.3826 24.4599 44.5555 24.6339 44.6576 25.7204C44.6493 25.9138 44.6327 26.1072 44.6327 26.3006C44.6318 33.605 44.6318 40.9093 44.6318 48.2127C44.6318 49.2876 44.3384 49.6005 43.3287 49.6005C29.778 49.6005 16.2282 49.6005 2.67743 49.6005C1.66676 49.6005 1.37432 49.2876 1.37432 48.2127C1.37432 40.9084 1.37432 33.604 1.3734 26.3006C1.3734 26.1072 1.35776 25.9138 1.34949 25.7204C1.37524 25.2179 1.41203 24.7058 1.93897 24.4939C2.1698 24.4016 2.43741 24.4123 2.68847 24.3754C4.26379 24.3754 5.83819 24.3734 7.41352 24.3724C8.50787 24.4696 8.70927 24.6766 8.75985 25.7554V35.9704H13.8132C13.8132 35.0005 13.8132 34.0345 13.8132 33.0675C13.8132 32.5165 13.8095 31.9664 13.8132 31.4154C13.8197 30.5796 14.1636 30.2152 14.9637 30.1957C15.2239 30.1889 15.4851 30.1948 15.7454 30.1948C16.0038 30.1948 16.2622 30.1948 16.5473 30.1948C16.5473 28.7166 16.5473 27.2627 16.5473 25.8088C16.6126 24.6815 16.7956 24.4725 17.8035 24.3724C21.2604 24.3744 24.7172 24.3773 28.1732 24.3792C28.9687 24.4337 29.2915 24.6368 29.4046 25.1839C29.446 25.3861 29.4405 25.5979 29.457 25.8059H29.4579ZM26.1776 47.5995L28.0647 47.6034H31.666C31.666 47.411 31.666 47.2516 31.666 47.0922C31.666 45.7647 31.6577 44.4362 31.6724 43.1086C31.6751 42.8423 31.723 42.5566 31.826 42.3166C31.997 41.9181 32.443 41.7412 32.8366 41.8511C33.3047 41.9823 33.5576 42.3574 33.5622 43.0007C33.5723 44.3769 33.565 45.754 33.5668 47.1301C33.5668 47.2856 33.5815 47.4411 33.5889 47.5966H37.2316V38.0327H8.77549V47.5937H12.4374C12.4374 47.3867 12.4374 47.2088 12.4374 47.032C12.4374 45.6714 12.4282 44.3108 12.442 42.9512C12.4485 42.2699 12.855 41.8083 13.3939 41.8122C13.9153 41.8161 14.2905 42.2534 14.3365 42.9152C14.3448 43.028 14.3383 43.1417 14.3383 43.2554C14.3383 44.5343 14.3383 45.8142 14.3383 47.0932C14.3383 47.2623 14.3383 47.4324 14.3383 47.6034H17.9405C18.5695 47.6024 19.1986 47.6005 19.8267 47.5995C21.9436 47.5995 24.0597 47.5995 26.1767 47.5995H26.1776ZM6.82496 47.6083V26.4075H3.27243V47.6083H6.82496ZM42.7254 47.6102V26.4065H39.171V47.6102H42.7254ZM15.7224 35.9733H30.2626V32.2152H15.7224V35.9733ZM18.4886 26.3978V30.1695H27.5148V26.3978H18.4886Z" fill="white"/>
<path d="M29.4577 25.8059C29.4421 25.598 29.4467 25.3861 29.4053 25.184C29.2931 24.6378 28.9694 24.4337 28.1739 24.3793C28.8618 23.7991 29.455 23.1343 29.8504 22.2918C30.553 20.7951 30.3774 19.3995 29.4605 18.0555C28.3643 16.45 26.9867 15.1468 25.5558 13.9008C24.7327 13.1846 23.8664 12.5247 23.0305 11.8493C21.1388 13.2176 19.4099 14.6657 17.9017 16.3732C17.2083 17.1575 16.6271 18.0623 16.0624 18.9593C15.6468 19.6202 15.6532 20.3976 15.7921 21.1664C16.0385 22.5337 16.8487 23.5027 17.8051 24.3705C16.7972 24.4706 16.6142 24.6796 16.5489 25.8069C14.2094 23.9157 12.5642 20.3082 15.1345 16.7309C16.7384 14.4985 18.7386 12.7269 20.8307 11.0504C21.1112 10.8259 21.3917 10.5946 21.6942 10.409C21.9793 10.2341 22.0511 10.0096 22.086 9.66847C22.1596 8.95222 21.9352 8.58778 21.2887 8.26318C19.7115 7.47113 19.0751 5.87439 19.4191 3.94528C19.6931 2.40685 20.9824 1.20662 22.5771 1.00545C23.4222 0.898544 23.9519 1.2902 23.9363 2.00839C23.9262 2.44961 23.6549 2.81599 23.2475 2.92581C23.0994 2.96566 22.9477 2.98995 22.796 3.01328C21.9186 3.15225 21.3604 3.68482 21.2547 4.48757C21.1241 5.48273 21.4643 6.18246 22.2819 6.59841C23.0305 6.9784 23.8673 6.76265 24.4237 6.0396C24.5203 5.91423 24.5975 5.77331 24.6904 5.64503C25.0233 5.18243 25.5227 5.06387 25.9402 5.34473C26.3761 5.63726 26.5195 6.20384 26.2574 6.70531C25.8123 7.55568 25.1622 8.19029 24.3041 8.53335C23.9933 8.65775 23.9538 8.8181 23.9225 9.12521C23.8499 9.8434 24.0908 10.27 24.6738 10.6967C26.732 12.2011 28.6503 13.8931 30.2679 15.9301C31.1315 17.0176 31.9058 18.1799 32.1081 19.6202C32.4024 21.7106 31.6649 23.4589 30.3415 24.9663C30.0739 25.2714 29.7529 25.5251 29.4559 25.803L29.4577 25.8059Z" fill="white"/>
<path d="M2.68773 24.3754C2.43668 24.4113 2.16907 24.4006 1.93824 24.4939C1.41129 24.7058 1.37359 25.218 1.34876 25.7204C0.172551 24.3783 -0.255076 22.8117 0.147722 21.0283C0.533046 19.3228 1.60442 18.1128 2.83488 17.0311C3.03444 16.8552 3.2248 16.6482 3.45379 16.5336C4.03499 16.243 4.21064 15.7872 4.13615 15.1322C4.08189 14.654 4.11776 14.1623 4.13063 13.6783C4.14535 13.1175 4.55642 12.6831 5.05394 12.6792C5.5441 12.6753 5.97357 13.1224 5.98736 13.6744C6.00024 14.24 6.02323 14.8095 5.98276 15.3722C5.94782 15.863 6.10507 16.1536 6.49775 16.4305C7.62614 17.2275 8.59727 18.2071 9.32193 19.4365C10.5083 21.4472 10.2793 24.0265 8.76004 25.7564C8.70946 24.6776 8.50714 24.4706 7.4137 24.3734C8.30666 23.2111 8.45932 21.9555 7.79535 20.6241C7.20587 19.4423 6.24854 18.6327 5.21855 17.9136C5.13119 17.8524 4.916 17.8776 4.82863 17.9515C4.19869 18.4899 3.53011 18.9952 2.9811 19.6162C1.60533 21.1712 1.53084 22.8418 2.68865 24.3754H2.68773Z" fill="white"/>
<path d="M38.5927 24.3725C38.3279 24.4153 38.0428 24.4046 37.8037 24.5105C37.2905 24.7389 37.251 25.2481 37.2464 25.7554C35.557 23.8526 35.4844 20.9594 37.0625 18.8359C37.7972 17.8475 38.6571 17.003 39.6503 16.3179C39.9289 16.1254 40.0356 15.9204 40.0209 15.5725C39.9942 14.9592 40.0071 14.3431 40.0163 13.7289C40.0255 13.1312 40.4246 12.6909 40.947 12.6812C41.4528 12.6725 41.8666 13.1244 41.8767 13.7211C41.8878 14.3197 41.9016 14.9194 41.8721 15.5161C41.8537 15.898 41.9714 16.1274 42.2786 16.3422C43.2792 17.0419 44.1629 17.8816 44.8922 18.8991C46.3792 20.9749 46.3709 23.4862 44.8563 25.5251C44.8011 25.5999 44.7239 25.6553 44.6568 25.7205C44.5547 24.6339 44.3818 24.46 43.3178 24.3754C44.2107 23.1995 44.3993 21.9419 43.6939 20.5911C43.0833 19.421 42.1213 18.6221 41.096 17.8981C41.0159 17.8417 40.8136 17.8641 40.7391 17.934C39.9896 18.6425 39.162 19.2888 38.5366 20.1061C37.4809 21.4861 37.5618 22.9721 38.5918 24.3725H38.5927Z" fill="white"/>
<path d="M17.9415 47.6034C17.9673 46.7171 17.8974 45.8133 18.0381 44.9484C18.314 43.2554 19.4948 42.0396 21.1023 41.8851C22.3889 41.7607 23.7076 41.7588 24.9914 41.9045C26.7552 42.1047 28.028 43.7442 28.0602 45.616C28.0712 46.2788 28.0648 46.9416 28.0657 47.6034C27.4367 47.6025 26.8077 47.6005 26.1786 47.5995C26.1842 47.0174 26.2081 46.4343 26.1906 45.8522C26.1529 44.6121 25.5193 43.8745 24.3569 43.8142C23.3802 43.7637 22.3971 43.787 21.4196 43.8395C20.6057 43.8832 19.9417 44.5674 19.8718 45.4197C19.8121 46.1418 19.8396 46.8726 19.8277 47.5986C19.1987 47.5995 18.5696 47.6015 17.9415 47.6025V47.6034Z" fill="white"/>
</svg>
