<svg width="44" height="45" viewBox="0 0 44 45" fill="none" xmlns="http://www.w3.org/2000/svg">
<path d="M21.8115 44.9976C15.01 44.9976 8.20951 44.9976 1.40804 44.9976C0.300443 44.9976 0.0019118 44.6815 0.0019118 43.505C0.0019118 40.9004 0.00381139 38.2969 8.49181e-06 35.6923C-0.000942232 35.0884 0.0770156 34.5511 0.69974 34.2926C0.783403 34.2572 0.846156 34.0522 0.847106 33.9239C0.876579 31.5436 1.66473 29.5036 3.22391 27.7897C3.35226 27.6484 3.39504 27.3686 3.39599 27.1535C3.40645 23.6592 3.3941 20.1639 3.40646 16.6696C3.41597 13.953 5.06831 11.7362 7.47364 11.206C7.90337 11.1111 8.35307 11.0868 8.7942 11.0868C17.4772 11.0798 26.1611 11.1121 34.844 11.0656C37.9814 11.0485 39.9523 13.5904 40.1709 15.7779C40.209 16.1606 40.2194 16.5484 40.2194 16.9342C40.2232 20.3447 40.2156 23.7552 40.2337 27.1666C40.2346 27.4171 40.3497 27.7241 40.5094 27.9069C41.9602 29.5682 42.7369 31.5123 42.7664 33.7826C42.7702 34.0653 42.8292 34.2259 43.082 34.4158C43.3397 34.6087 43.5954 35.0237 43.6002 35.3459C43.6401 38.2019 43.6316 41.0579 43.6183 43.914C43.6154 44.5714 43.217 44.9562 42.5943 44.9946C42.4365 45.0047 42.2777 44.9976 42.1199 44.9976C35.3508 44.9976 28.5807 44.9976 21.8115 44.9976ZM30.3519 24.6984C31.0136 24.7328 31.6762 24.7661 32.3379 24.8004C32.915 24.865 33.4911 24.9297 34.1234 25.0004C34.1234 23.8319 34.1262 22.7109 34.1234 21.5909C34.1186 19.8084 33.186 18.8238 31.5003 18.8217C29.4772 18.8197 27.454 18.8197 25.4309 18.8238C25.1951 18.8238 24.9556 18.8359 24.7226 18.8753C23.8137 19.0258 22.9429 19.8135 22.8735 20.7759C22.7803 22.0706 22.8506 23.3795 22.8506 24.6893H24.619C25.2674 24.6924 25.9158 24.6944 26.5642 24.6974C27.8267 24.6974 29.0902 24.6984 30.3528 24.6994L30.3519 24.6984ZM13.3158 24.651C13.3719 24.6742 13.429 24.7186 13.4851 24.7186C14.6811 24.7156 15.8771 24.7065 17.0722 24.6994C17.7339 24.6994 18.3956 24.6984 19.0563 24.6974H20.8351C20.8351 23.5724 20.838 22.4857 20.8351 21.4001C20.8304 19.9256 19.95 18.8662 18.5771 18.8379C16.3201 18.7904 14.0612 18.7985 11.8032 18.8379C10.6586 18.8571 9.67267 19.7115 9.589 20.8486C9.48918 22.211 9.56524 23.5875 9.56524 25.0044C10.1794 24.9246 10.7689 24.8489 11.3583 24.7721C12.0105 24.7317 12.6637 24.6913 13.3158 24.651ZM38.2467 25.9507C38.2571 25.9194 38.2761 25.8871 38.2761 25.8558C38.2761 22.7483 38.3218 19.6388 38.26 16.5333C38.2191 14.4731 36.8491 13.1602 34.9058 13.1592C26.1763 13.1551 17.4467 13.1551 8.7172 13.1602C6.69976 13.1612 5.36399 14.5912 5.35924 16.7383C5.35258 19.7115 5.35733 22.6857 5.35924 25.6588C5.35924 25.7972 5.3811 25.9355 5.39251 26.0699C6.14168 25.8133 6.84427 25.572 7.58108 25.3195C7.58108 25.1468 7.58108 24.964 7.58108 24.7812C7.58298 23.5885 7.56016 22.3948 7.59058 21.2031C7.65428 18.7359 9.42169 16.8383 11.7376 16.7979C14.0298 16.7575 16.3239 16.7888 18.6171 16.7878C19.7532 16.7878 20.702 17.2635 21.5215 18.0724C21.6233 18.1724 21.7259 18.2734 21.8429 18.3885C22.8697 17.1615 24.1465 16.7292 25.6429 16.7706C27.6024 16.8252 29.5647 16.7827 31.526 16.7858C31.8264 16.7858 32.1288 16.7898 32.4254 16.8282C34.3753 17.0857 35.9763 18.8995 36.0429 20.9951C36.0885 22.4362 36.0514 23.8804 36.0514 25.3256C36.7217 25.5488 37.352 25.7598 37.9814 25.9699C38.0698 25.9638 38.1582 25.9568 38.2467 25.9507ZM41.6388 42.894V36.3548H1.98607V42.894H41.6388ZM2.81986 34.2047H40.8127C40.903 31.0316 39.0443 28.3482 36.195 27.5373C34.1491 26.9556 32.0508 26.797 29.9431 26.792C24.5192 26.7788 19.0962 26.7808 13.6724 26.792C11.7557 26.796 9.8533 26.9677 7.97182 27.3868C4.80496 28.0917 2.6839 30.8669 2.81986 34.2047Z" fill="white"/>
<path d="M34.4026 2.03366C33.6411 2.03366 33.0217 2.03862 32.4024 2.03069C32.2009 2.02771 31.9948 2.0168 31.8009 1.96522C31.3359 1.84222 31.0572 1.4653 31.0638 1.01101C31.0704 0.538866 31.3839 0.153018 31.8564 0.0458923C31.9778 0.0181191 32.104 0.00324033 32.2273 0.00224843C33.6505 -0.000727279 35.0747 0.000262685 36.4979 0.000262685C36.5601 0.000262685 36.6231 -0.00172233 36.6853 0.00522098C37.1192 0.0518404 37.475 0.231377 37.6341 0.689636C37.7875 1.12905 37.6397 1.48911 37.3366 1.80652C36.5045 2.6784 35.6771 3.55524 34.8488 4.43109C34.7292 4.55805 34.6135 4.68898 34.5156 4.95183C34.781 4.95183 35.0465 4.95183 35.3119 4.95183C35.7496 4.95183 36.1883 4.93596 36.626 4.95779C37.2933 4.99052 37.7085 5.41704 37.6887 6.01714C37.6699 6.60137 37.2218 6.99912 36.5676 7.00011C35.1124 7.00309 33.6581 6.98921 32.2028 7.00805C31.7086 7.014 31.3378 6.84538 31.1467 6.36529C30.9528 5.87827 31.1288 5.47358 31.4686 5.11947C32.4118 4.13352 33.3493 3.14162 34.4007 2.03465L34.4026 2.03366Z" fill="white"/>
<path d="M23.0616 6.59329C22.8198 6.59329 22.578 6.6027 22.3371 6.59015C22.1214 6.5797 21.902 6.57028 21.6919 6.51799C21.227 6.404 20.9114 5.92085 20.9478 5.41468C20.9851 4.89074 21.3334 4.45778 21.831 4.44628C23.0878 4.417 24.3464 4.42432 25.6031 4.43896C26.013 4.44419 26.3015 4.71505 26.4565 5.13441C26.619 5.57574 26.4827 5.96268 26.2091 6.2806C25.6928 6.88193 25.1578 7.46444 24.6321 8.05636C24.5257 8.17558 24.4267 8.30316 24.2334 8.53637C24.6909 8.53637 25.0373 8.5301 25.3828 8.53742C26.0775 8.55206 26.5294 8.98502 26.5228 9.61981C26.5163 10.2473 26.055 10.6876 25.3716 10.6928C24.2848 10.7012 23.198 10.6928 22.1112 10.6959C21.6238 10.697 21.2167 10.5349 21.0169 9.99316C20.8217 9.4619 21.0318 9.05823 21.367 8.69115C21.9543 8.05008 22.5313 7.39646 23.1121 6.74912C23.0953 6.69683 23.0784 6.64454 23.0616 6.59225V6.59329Z" fill="white"/>
</svg>
