<svg width="193" height="54" viewBox="0 0 193 54" fill="none" xmlns="http://www.w3.org/2000/svg">
<path d="M32.7965 22.8878H46.3047C46.3047 22.8878 46.4072 22.9387 46.4072 23.0024C46.4072 23.0406 46.3944 23.066 46.3688 23.0915L35.4366 30.9863C35.4366 30.9863 35.3853 31.0627 35.3982 31.1009L39.5634 43.8727C39.5634 43.8727 39.5634 43.9873 39.4993 44C39.4609 44 39.4352 44 39.4096 43.9873L28.4646 36.1052C28.4646 36.1052 28.3877 36.0797 28.3493 36.1052L17.4043 43.9873C17.4043 43.9873 17.289 44.0127 17.2633 43.9618C17.2377 43.9363 17.2377 43.8981 17.2505 43.8727L21.4158 31.1009C21.4158 31.1009 21.4158 31.0118 21.3773 30.9863L10.4451 23.0915C10.4451 23.0915 10.3811 22.9897 10.4195 22.9515C10.4451 22.926 10.4708 22.9133 10.5092 22.9133H24.0174C24.0174 22.9133 24.1072 22.8751 24.12 22.8369L28.3108 10.0651C28.3108 10.0651 28.3877 9.9887 28.439 10.0014C28.4646 10.0014 28.4903 10.0397 28.5031 10.0651L32.694 22.8369C32.694 22.8369 32.7452 22.9133 32.7965 22.9133V22.8878Z" fill="#FFB71B"/>
<path d="M78.1749 22.8957H91.3421C91.3421 22.8957 91.4419 22.9339 91.4419 22.9975C91.4419 23.0357 91.4294 23.0611 91.4045 23.0866L80.756 30.9785C80.756 30.9785 80.7061 31.0548 80.7186 31.093L84.7959 43.8727C84.7959 43.8727 84.7959 43.9873 84.7336 44C84.6962 44 84.6712 44 84.6463 43.9873L73.9978 36.0827C73.9978 36.0827 73.9229 36.0572 73.8855 36.0827L63.237 43.9873C63.237 43.9873 63.1248 44.0127 63.0998 43.9618C63.0749 43.9364 63.0749 43.8982 63.0874 43.8727L67.1647 31.093C67.1647 31.093 67.1647 31.0039 67.1273 30.9785L56.4788 23.0866C56.4788 23.0866 56.4164 22.9848 56.4538 22.9466C56.4788 22.9211 56.5037 22.9084 56.5411 22.9084H69.7084C69.7084 22.9084 69.7832 22.8829 69.8082 22.8448L73.8731 10.0651C73.8731 10.0651 73.9479 9.9887 73.9978 10.0014C74.0227 10.0014 74.0476 10.0396 74.0601 10.0651L78.125 22.8448C78.125 22.8448 78.1749 22.9084 78.2248 22.9084L78.1749 22.8957Z" fill="#FFB71B"/>
<path d="M123.244 22.8878H136.377C136.377 22.8878 136.477 22.9387 136.477 23.0024C136.477 23.0406 136.464 23.066 136.439 23.0915L125.811 30.9863C125.811 30.9863 125.761 31.0627 125.774 31.1009L129.823 43.8727C129.823 43.8727 129.823 43.9873 129.761 44C129.723 44 129.699 44 129.674 43.9873L119.033 36.1052C119.033 36.1052 118.958 36.0797 118.92 36.1052L108.28 43.9873C108.28 43.9873 108.167 44.0127 108.142 43.9618C108.118 43.9363 108.118 43.8981 108.13 43.8727L112.18 31.1009C112.18 31.1009 112.18 31.0118 112.142 30.9863L101.514 23.0915C101.514 23.0915 101.451 22.9897 101.489 22.9515C101.514 22.926 101.539 22.9133 101.576 22.9133H114.709C114.709 22.9133 114.784 22.8751 114.809 22.8369L118.883 10.0651C118.883 10.0651 118.958 9.9887 119.008 10.0014C119.033 10.0014 119.058 10.0397 119.07 10.0651L123.144 22.8369C123.144 22.8369 123.194 22.9005 123.244 22.9005V22.8878Z" fill="#FFB71B"/>
<path d="M168.886 22.9036H182.409C182.409 22.9036 182.511 22.9545 182.511 23.0054C182.511 23.0435 182.499 23.069 182.473 23.0817L171.539 30.9833C171.539 30.9833 171.488 31.0597 171.501 31.0978L175.667 43.8728C175.667 43.8728 175.654 43.9746 175.603 44C175.577 44 175.539 44 175.513 43.9873L164.566 36.1111C164.566 36.1111 164.477 36.0856 164.451 36.1111L153.504 43.9873C153.504 43.9873 153.402 44.0127 153.363 43.9618C153.351 43.9364 153.338 43.9109 153.351 43.8728L157.516 31.0978C157.516 31.0978 157.516 31.0088 157.478 30.9833L146.544 23.0817C146.544 23.0817 146.493 22.9927 146.519 22.9418C146.531 22.9163 146.57 22.9036 146.596 22.9036H160.118C160.118 22.9036 160.195 22.8654 160.208 22.8272L164.4 10.065C164.4 10.065 164.477 9.98871 164.528 10.0014C164.554 10.0014 164.579 10.0269 164.592 10.065L168.783 22.8272C168.783 22.8272 168.835 22.8909 168.873 22.8909L168.886 22.9036Z" fill="#FFB71B"/>
</svg>
