<svg width="100" height="103" viewBox="0 0 100 103" fill="none" xmlns="http://www.w3.org/2000/svg">
<g clip-path="url(#clip0_1_592)">
<path d="M66.6704 49.8261C66.6788 50.048 66.6704 50.2137 66.6704 50.2137C66.6704 60.4766 57.7872 61.8529 54.1338 61.8529C50.4805 61.8529 47.2206 60.9204 46.9902 60.7799C46.7766 60.6564 46.7682 60.3839 46.7682 60.3418V45.7338C44.7307 45.5597 42.8928 45.3378 41.2263 45.0401V53.2667C41.2263 53.2667 41.3331 58.856 40.4844 60.1901C39.6442 61.5327 38.7927 62.013 37.7473 62.1028C36.699 62.2011 36.2381 62.1281 35.9234 62.1281H35.471V63.6195H37.6236C43.5785 63.6195 47.215 63.4538 50.8037 63.4538C54.3924 63.4538 58.071 63.8976 62.6489 62.5213C65.4872 61.6647 68.7106 59.8587 70.748 56.7748V56.7663C71.5658 55.2918 69.6183 51.6236 66.6732 49.8177L66.6704 49.8261ZM52.1133 13.0689C50.4384 13.0857 46.2651 13.0604 43.8736 13.052C39.1299 13.052 36.0302 13.0604 36.0302 13.0604H35.4681V14.5434H36.789C38.3796 14.5434 39.2704 14.8243 40.1697 15.9112C41.0605 17.0066 41.2011 20.0007 41.2011 21.8713C41.2011 23.7418 41.2179 28.8452 41.2179 28.8452V33.3138C41.9851 33.4374 42.786 33.5441 43.6263 33.6509C50.1911 34.4429 54.398 34.5497 59.8105 35.7209C59.9089 35.6872 68.0924 33.0835 68.0924 25.1771C68.0924 16.678 59.6391 12.9846 52.1161 13.066L52.1133 13.0689ZM49.2496 34.1564C47.6506 34.1564 47.1391 34.0329 46.9396 33.8419C46.7429 33.6593 46.7991 33.033 46.7991 33.033L46.7485 15.8607C46.7485 15.8607 46.7063 15.6304 46.8637 15.5068C47.0211 15.3748 49.0079 14.9535 51.0454 14.9535C53.0828 14.9535 62.0082 15.5545 62.0082 24.8204C62.0082 31.1764 55.0809 34.1508 49.2468 34.1508L49.2496 34.1564Z" fill="white"/>
<path d="M72.7996 49.5706C72.7996 42.3831 66.5636 37.6252 61.3928 36.0917C61.359 36.0833 61.3281 36.0748 61.3028 36.0664C60.7914 35.9344 60.2883 35.8192 59.8106 35.7209C54.4009 34.5497 50.1939 34.443 43.6263 33.6509C42.7861 33.5442 41.9852 33.4375 41.218 33.3139C35.0972 32.3337 31.1067 30.5024 27.2707 25.1125C27.2707 25.1125 25.77 33.1173 29.8758 38.6307C32.6973 42.4056 36.1679 44.1217 41.2264 45.043C42.8929 45.3407 44.7308 45.5626 46.7682 45.7367C47.5776 45.8013 48.4094 45.8687 49.2834 45.9277C59.0743 46.5877 63.315 47.9219 66.4062 49.6717C66.4877 49.7222 66.5805 49.77 66.6704 49.829C69.6156 51.6349 71.5603 55.3031 70.7453 56.7776C71.9986 54.8818 72.7996 52.5084 72.7996 49.5734V49.5706ZM67.3055 48.7982C67.1987 48.7336 67.1004 48.6746 67.0076 48.6156C64.1777 47.0259 60.086 45.4418 49.3649 44.7172C48.4319 44.6526 47.6169 44.5936 46.875 44.5262C44.6886 44.3436 42.9659 44.1301 41.44 43.8493C36.3843 42.9336 32.8631 41.1529 30.3957 37.8471C28.1278 34.7969 27.5011 30.0727 27.7821 26.7921C31.0308 31.6146 35.9656 33.7015 41.0297 34.5076C41.8222 34.6396 42.6456 34.7463 43.4802 34.8446C45.6329 35.1086 47.4961 35.2912 49.2946 35.471C52.8833 35.8249 55.9746 36.1226 59.5549 36.8978C60.0157 36.9961 60.5047 37.1112 61.0078 37.2348L61.0668 37.2517C66.1308 38.7515 71.5912 43.2538 71.5912 49.5677C71.5912 50.7137 71.4591 51.8091 71.1949 52.8314C70.2872 51.2473 68.8455 49.7391 67.3111 48.7925L67.3055 48.7982Z" fill="white"/>
<path d="M23.8619 23.3824C19.4133 23.4189 17.5613 28.0645 17.6035 30.9153C17.6456 33.7661 18.632 35.7856 18.632 35.7856C18.632 35.7856 18.6011 35.1705 18.5505 33.9346C18.4634 31.7354 20.1861 24.7362 25.52 24.739C26.5485 24.739 27.2567 25.0901 27.2567 25.0901C27.2567 25.0901 25.7785 23.3684 23.8619 23.3824Z" fill="white"/>
<path d="M22.6479 23.3093C23.0357 23.2278 23.4432 23.1857 23.8591 23.1829C24.8202 23.1745 25.6633 23.5677 26.2871 23.989C25.4216 23.1015 23.786 21.8179 21.5884 21.8235C13.4724 21.8432 11.2888 29.6682 11.2045 33.179C11.1483 35.5495 11.5389 37.4622 11.5389 37.4622C11.5389 37.4622 11.8958 31.3786 15.878 27.7245C17.0133 26.6825 18.1964 25.8961 19.3683 25.3344C20.1861 24.3597 21.2708 23.5986 22.6479 23.3093Z" fill="white"/>
<path d="M18.3594 20.7337C19.6381 20.8292 21.0854 21.1775 22.4399 21.6802C25.1743 22.0734 26.8633 24.2895 27.1274 24.6574C26.9363 24.2389 26.3911 23.0846 25.9162 22.3431C25.0956 21.0623 22.6563 18.7873 19.5116 18.6609C14.012 18.4418 12.7417 23.2053 12.7024 23.3767C12.8204 23.2362 15.1445 20.495 18.3622 20.7337H18.3594Z" fill="white"/>
<path d="M29.6791 22.1577C27.9199 22.9188 27.2623 25.0899 27.2623 25.0899C27.2623 25.0899 27.771 24.4804 28.7096 24.0676C33.5882 21.9105 37.9919 27.6205 38.8012 29.6653C39.2565 30.8168 39.4757 31.3926 39.4757 31.3926C39.4757 31.3926 39.5628 29.1485 38.4471 26.5223C37.3343 23.8962 33.7596 20.3938 29.6791 22.1577Z" fill="white"/>
<path d="M40.3496 23.6071C39.841 23.3347 39.3042 23.0959 38.7365 22.9049C37.278 22.4078 35.8785 22.1663 34.5774 22.1269C33.4336 21.5652 32.1353 21.3096 30.761 21.5989C30.3732 21.6775 29.9826 21.8039 29.6004 21.9696C28.7208 22.3516 28.1054 23.051 27.7035 23.6914C28.1363 22.5258 29.1142 20.6945 31.1264 19.8098C34.8022 18.2004 37.9216 18.9194 40.3187 20.4445C40.3412 20.9557 40.3468 21.4416 40.3468 21.8713C40.3468 22.3011 40.3468 22.9218 40.3496 23.6043V23.6071Z" fill="white"/>
<path d="M27.3803 22.0342C27.2454 22.9021 27.2117 24.18 27.2061 24.6379C27.2988 24.1941 27.948 21.4837 30.2917 20.0204C31.3287 19.0149 32.5118 18.1105 33.6415 17.5094C36.4883 15.9927 39.7201 17.56 39.8859 17.6442C39.7791 17.5038 36.6935 13.6615 31.7502 16.0798C28.9231 17.4645 27.6107 20.5316 27.3775 22.0342H27.3803Z" fill="white"/>
<path d="M28.3498 15.1051C27.9058 15.3158 27.5686 15.6023 27.3128 15.9477C26.5035 17.015 26.4051 18.6581 26.4585 20.3349C26.4754 20.7983 26.4922 21.2084 26.5203 21.5876C26.3911 21.2309 26.2421 20.8489 26.0707 20.4164C25.444 18.8603 24.6881 17.397 23.5162 16.7482C23.1424 16.5348 22.7181 16.4112 22.2263 16.3971C20.6553 16.355 19.0114 17.2032 19.0114 17.2032C19.0114 17.2032 19.4919 17.1892 19.9444 17.2032C22.7518 17.2875 24.334 19.1665 25.5761 21.3825C25.6885 21.582 25.7953 21.7729 25.8908 21.9527C25.8937 21.9527 25.8965 21.9611 25.8993 21.9639C25.9667 22.0566 26.0286 22.1465 26.0848 22.2336C26.4164 22.7532 26.7761 23.4553 27.0234 23.9637C27.0234 23.9637 27.0234 23.9693 27.0234 23.9721C27.0234 23.9721 27.0234 23.9721 27.0234 23.9693C27.0234 23.9693 27.0234 23.9693 27.0234 23.9721C27.0234 23.9721 27.0234 23.9665 27.0234 23.9637C27.0402 23.3992 27.0852 22.6099 27.1808 22.0033C27.1976 21.9021 27.2173 21.7954 27.2398 21.6831C27.2398 21.6803 27.2398 21.6746 27.2426 21.6718C27.2566 21.4668 27.2791 21.2505 27.3016 21.023C27.5433 18.4952 28.229 16.1359 30.7638 14.9254C31.1713 14.7288 31.6153 14.549 31.6153 14.549C31.6153 14.549 29.769 14.4367 28.347 15.1108L28.3498 15.1051Z" fill="white"/>
<path d="M10.6509 39.5855L21.5266 64.9366L19.6212 64.8187L8.79333 39.5799L10.2125 36.2993C10.3081 37.1363 10.4149 37.6615 10.4205 37.6868C10.4963 38.0716 10.7661 38.3721 11.109 38.5126L10.6481 39.5799L10.6509 39.5855Z" fill="white"/>
<path d="M91.2012 39.7063L80.3424 64.8131C79.8394 64.8468 78.5916 64.9395 78.4118 64.9789L89.3436 39.7035L77.8694 12.9621L50.0563 1.83126L22.2039 12.8778L21.1416 15.3326C20.5655 15.4197 20.0428 15.5741 19.6157 15.7202C19.3852 15.7988 19.1829 15.8803 19.0171 15.9477L20.9196 11.5521L50.0591 0L78.8361 11.51L79.1649 11.642L91.204 39.7063H91.2012Z" fill="white"/>
<path d="M9.63354 77.4184C9.36095 76.0169 8.56003 75.0282 7.23359 74.4581C6.99472 74.3514 6.87107 74.3008 6.87107 74.3008C6.82048 74.2755 6.82048 74.2587 6.86264 74.2502C8.14973 73.9048 8.80171 72.9554 8.91693 71.6691C8.97595 71.0343 8.92536 70.408 8.77642 69.7816C8.43919 68.4054 7.50619 67.4982 6.18537 67.0375C5.71605 66.8718 5.26079 66.7735 4.84207 66.723C2.97044 66.5264 1.37703 66.3522 0.0590179 66.2034C0.0168641 66.2034 2.63448e-06 66.2202 2.63448e-06 66.2623V66.6331C2.63448e-06 66.6752 0.0252949 66.6977 0.0646384 66.7061C0.848699 66.7876 1.30115 67.2173 1.40794 67.9841C1.46695 68.3801 1.49787 68.6834 1.49787 68.8913C1.5063 69.7086 1.52316 72.1971 1.54002 76.3764C1.54002 76.4916 1.56531 76.6152 1.56531 76.7135C1.55688 77.4465 1.55688 78.5447 1.57374 80.0024C1.57374 80.2243 1.54002 80.5473 1.48382 80.9742C1.41075 81.536 1.096 81.8646 0.559243 81.9629C0.320371 82.005 0.137705 82.0219 0.0224846 82.0219C0.00562314 82.0219 -0.00280762 82.0303 -0.00280762 82.0471V82.4993C-0.00280762 82.4993 0.00562314 82.5162 0.0140539 82.5162H4.34465C4.42615 82.5162 4.75776 82.5246 5.30857 82.5331C5.63737 82.5415 5.96055 82.5331 6.28092 82.5078C7.32071 82.4347 8.18627 81.9966 8.87197 81.2045C9.19234 80.8422 9.41716 80.4293 9.54924 79.9687C9.77968 79.1514 9.80497 78.3032 9.63073 77.4128L9.63354 77.4184ZM3.19245 68.0796C3.19245 67.7257 3.35825 67.5515 3.70391 67.5684C3.8107 67.5684 4.05801 67.5937 4.43739 67.6414C6.14602 67.8464 7.03687 68.9615 7.18301 70.6327C7.25607 71.45 7.21673 72.2814 6.74461 72.9583C6.25843 73.6576 5.26922 73.784 4.45144 73.7334C3.95684 73.7082 3.64209 73.6913 3.51001 73.6745H3.29643C3.27114 73.6745 3.2627 73.6576 3.2627 73.6323C3.22055 71.2337 3.19807 69.38 3.18964 68.0768L3.19245 68.0796ZM7.71133 79.2413C7.63827 79.7187 7.48089 80.1485 7.24202 80.5361C6.81205 81.1877 6.07015 81.4517 5.29452 81.5332C4.83364 81.5837 4.36151 81.5978 3.90906 81.5163C3.66176 81.4658 3.50439 81.3337 3.43975 81.1287C3.37511 80.9237 3.34982 80.6849 3.34139 80.4434C3.32453 79.1233 3.3161 77.806 3.29924 76.4944C3.29924 76.486 3.29081 76.1967 3.27395 75.6209C3.26552 75.2754 3.26552 74.9608 3.28238 74.6715C3.28238 74.6463 3.29081 74.6378 3.3161 74.6378C3.95122 74.6631 4.56104 74.7446 5.16244 74.885C5.68233 75.017 6.12635 75.1996 6.48325 75.4467C7.25888 75.9832 7.63827 76.9382 7.72819 77.8959C7.77035 78.3734 7.77035 78.82 7.71133 79.2385V79.2413Z" fill="white"/>
<path d="M93.3256 74.8344C93.2806 76.4438 93.2357 78.3649 93.1879 80.6006C93.1851 80.7888 93.1963 80.9742 93.2244 81.1624C93.2553 81.3646 93.393 81.446 93.6122 81.491C93.7499 81.5191 93.8399 81.5331 93.8764 81.5359C94.9752 81.5893 95.8211 81.5865 96.4141 81.5275C97.2009 81.4488 97.9653 81.1961 98.4684 80.5894C98.8562 80.1231 99.1625 79.5698 99.3901 78.9294C99.4829 78.6654 99.5447 78.4688 99.5784 78.3396C99.5868 78.3115 99.6037 78.2947 99.6346 78.2919L99.955 78.2694C99.9775 78.2694 99.9943 78.2835 99.9971 78.3059C99.9971 78.3087 99.9971 78.3115 99.9971 78.3143L99.2412 82.4852C99.2356 82.5077 99.2159 82.5274 99.1906 82.5274H89.7763C89.7763 82.5274 89.7678 82.5218 89.7678 82.5189V82.092C89.7678 82.092 89.7763 82.0724 89.7875 82.0696C90.0179 82.0583 90.254 82.0106 90.4901 81.9291C90.9509 81.7662 91.1673 81.4629 91.2854 80.977C91.3669 80.6427 91.4118 80.3029 91.4203 79.9518C91.6029 73.8177 91.7041 70.2562 91.7266 69.2676C91.7266 69.1637 91.721 69.0036 91.7041 68.7873C91.6928 68.6384 91.6563 68.4727 91.5917 68.293C91.4006 67.7453 90.7542 67.6329 90.2596 67.6442C90.2484 67.6442 90.2428 67.6385 90.2428 67.6273L90.2737 67.2032C90.2737 67.2032 90.2821 67.1864 90.2933 67.1835C93.2301 66.9251 96.1527 66.633 99.0585 66.3072C99.0922 66.3044 99.1091 66.3185 99.1091 66.3522L99.1513 69.7114C99.1513 69.7338 99.1344 69.7535 99.1091 69.7563L98.7943 69.7788C98.7719 69.7788 98.7578 69.7703 98.7522 69.7451C98.6791 69.2058 98.5442 68.5823 98.2632 68.0879C98.1705 67.925 97.9738 67.7537 97.7799 67.6835C97.4173 67.5543 97.0379 67.5065 96.6389 67.5374C96.1274 67.5796 95.2647 67.6582 94.0535 67.779C93.809 67.8043 93.6291 67.852 93.5504 68.0936C93.4998 68.2508 93.4717 68.3885 93.4689 68.5008C93.4521 69.0794 93.4099 70.8489 93.3397 73.8092C93.3397 73.8317 93.3509 73.8429 93.3734 73.8429C94.0563 73.8177 94.7701 73.7811 95.5092 73.7362C96.2342 73.6913 97.0801 73.6969 97.437 72.9133C97.6084 72.5341 97.7265 72.0285 97.7939 71.3938C97.7967 71.3601 97.8164 71.3404 97.8529 71.3376L98.1396 71.3179C98.1677 71.3179 98.1817 71.3292 98.1817 71.3572V76.7808C98.1817 76.8089 98.1677 76.8258 98.1396 76.8286L97.7855 76.8538C97.7686 76.8538 97.7546 76.8426 97.7546 76.8286C97.7405 76.6207 97.7096 76.3707 97.6562 76.0786C97.5916 75.7219 97.4932 75.4354 97.3611 75.2248C97.0548 74.7333 96.3017 74.6687 95.7761 74.6883C95.6384 74.694 94.8347 74.7305 93.3593 74.8007C93.3368 74.8007 93.3228 74.8147 93.3228 74.8372L93.3256 74.8344Z" fill="white"/>
<path d="M14.2957 75.1744C14.425 78.2275 14.5037 80.0756 14.5346 80.7244C14.5402 80.8339 14.5515 80.9435 14.5712 81.0502C14.6077 81.258 14.6274 81.4153 14.8353 81.494C14.9814 81.5501 15.1388 81.5838 15.3018 81.5979C15.6728 81.6288 16.3247 81.6456 17.2606 81.6484C17.7046 81.6484 18.143 81.6007 18.5729 81.5024C18.8118 81.449 19.0507 81.3591 19.2896 81.2356C20.1354 80.8002 20.6385 79.6515 20.8661 78.7836C20.8661 78.7723 20.8745 78.7667 20.8886 78.7667H21.2764C21.2764 78.7667 21.2877 78.7695 21.2848 78.778L20.7144 82.5023C20.7116 82.5219 20.6919 82.5388 20.6722 82.5388H11.2775C11.2494 82.5388 11.2354 82.5247 11.2354 82.4967L11.2157 82.1147C11.2157 82.0866 11.227 82.0725 11.2551 82.0697C11.4939 82.0613 11.7328 82.0108 11.9689 81.9237C12.3904 81.7664 12.5759 81.4631 12.6574 81.0109C12.7164 80.6822 12.7389 80.3536 12.7248 80.0166C12.5028 74.3318 12.3651 70.8406 12.3117 69.543C12.3033 69.3324 12.2611 69.088 12.1824 68.8156C12.1094 68.5628 12.0166 68.3774 11.8986 68.2623C11.5867 67.9505 11.1511 67.796 10.7295 67.737C10.7183 67.737 10.7127 67.7286 10.7099 67.7174L10.6818 67.3101C10.6818 67.2933 10.6874 67.2848 10.7042 67.2876L19.7561 67.973C19.7814 67.973 19.801 67.9954 19.8038 68.0207L20.0118 71.0316C20.0118 71.0625 20.0006 71.0766 19.9696 71.0737L19.6352 71.0485C19.6099 71.0485 19.5931 71.0316 19.5875 71.0063C19.506 70.585 19.3739 70.1722 19.1856 69.7677C18.9776 69.3127 18.6235 69.0122 18.1261 68.8633C17.7748 68.7594 17.4404 68.6948 17.12 68.6723C15.9594 68.5881 15.091 68.5263 14.5206 68.4898C14.2227 68.4701 14.0681 68.6049 14.0541 68.8914C14.0428 69.1526 14.0428 69.4138 14.0541 69.6778C14.0597 69.7902 14.1243 71.29 14.248 74.1801C14.248 74.2082 14.2648 74.2223 14.2929 74.2223C15.2344 74.2644 16.1702 74.3037 17.1004 74.3402C17.2184 74.343 17.4207 74.3178 17.7074 74.2616C18.1205 74.1801 18.3481 73.9246 18.4802 73.5117C18.5982 73.1437 18.6629 72.7561 18.6741 72.3545C18.6741 72.3433 18.6825 72.3376 18.6938 72.3376L19.0647 72.3657C19.0816 72.3657 19.09 72.377 19.09 72.3938L19.3345 77.3203C19.3345 77.3568 19.3177 77.3764 19.2811 77.3764H18.9832C18.9467 77.3764 18.927 77.3596 18.9214 77.3231C18.8427 76.8343 18.7247 76.2895 18.4268 75.8401C18.1542 75.43 17.4011 75.2699 16.9121 75.2446C16.0016 75.1941 15.1388 75.1604 14.3267 75.1407C14.3014 75.1407 14.2901 75.152 14.2929 75.1772L14.2957 75.1744Z" fill="white"/>
<path d="M89.5178 82.0669C89.4841 82.0584 89.4279 82.05 89.3436 82.0331C89.0541 81.9601 88.8068 81.8365 88.6185 81.654C88.4443 81.4798 88.2644 81.2411 88.0733 80.9209C86.8846 78.8678 85.8055 77.0225 84.8472 75.3822C84.8387 75.3653 84.8387 75.3485 84.864 75.3401C84.9961 75.2979 85.1788 75.2418 85.4008 75.1575C85.9769 74.9609 86.4799 74.6547 86.9183 74.2334C87.7108 73.4835 88.0227 72.4106 88.0565 71.3236C88.0902 70.0288 87.7361 68.8267 86.5474 68.1414C86.2495 67.9673 85.887 67.8437 85.4598 67.7622C85.0073 67.6808 84.6111 67.6555 84.2879 67.6808C82.2926 67.8212 80.5671 67.9448 79.1086 68.0347C79.0749 68.0347 79.058 68.0515 79.058 68.0852V68.4307C79.058 68.4644 79.0749 68.4897 79.1086 68.4897C79.6201 68.5065 80.2299 68.5627 80.421 69.1413C80.48 69.3323 80.5109 69.512 80.5109 69.6778C80.5278 70.0738 80.5278 70.3209 80.5194 70.4108C80.3789 73.3459 80.2299 76.281 80.081 79.216C80.081 79.2245 80.0725 79.407 80.0641 79.7609C80.0473 80.2637 79.9826 80.7243 79.859 81.1456C79.7522 81.5248 79.5217 81.7888 79.1733 81.9292C78.9175 82.0275 78.6618 82.0865 78.3892 82.1034C78.3555 82.1034 78.3386 82.1202 78.3386 82.1539V82.5162C78.3386 82.5331 78.3471 82.5499 78.3723 82.5499H83.2706C83.2875 82.5499 83.2959 82.5415 83.2959 82.5247V82.1034C83.2959 82.1034 83.2959 82.0865 83.2875 82.0865C83.0402 82.0781 82.7929 82.0219 82.5371 81.9208C82.2224 81.7972 82.0257 81.5753 81.9357 81.2439C81.8374 80.9153 81.8037 80.5754 81.8205 80.2215C81.902 78.2667 81.9779 76.7837 82.0257 75.7951C82.0257 75.7529 82.0594 75.7305 82.0987 75.722L82.9165 75.6631C82.9502 75.6631 82.9671 75.6799 82.9812 75.7052L86.7497 82.5219C86.7497 82.5219 86.7581 82.5387 86.775 82.5387H89.5066C89.5487 82.5387 89.5656 82.5219 89.5656 82.4882V82.1174C89.5656 82.0837 89.5487 82.0669 89.515 82.0669H89.5178ZM82.11 74.8373C82.0847 74.8373 82.0678 74.8204 82.0678 74.7952C82.0678 74.7306 82.0847 74.6716 82.0847 74.6042C82.2083 72.0651 82.2814 70.3575 82.3236 69.4755C82.3404 69.2452 82.3966 69.0627 82.5062 68.9138C82.5877 68.7986 82.7788 68.7172 82.9278 68.6919C83.4392 68.602 83.9254 68.5936 84.3807 68.6498C85.5694 68.8239 86.1033 69.6721 86.1877 70.8181C86.3113 72.5258 85.7183 74.0087 83.976 74.5536C83.383 74.7446 82.7648 74.8345 82.1128 74.8345L82.11 74.8373Z" fill="white"/>
<path d="M25.3457 81.5134C25.4328 81.5808 25.7279 81.6398 25.8403 81.6482C26.4698 81.6988 27.1555 81.7044 27.8974 81.6651C28.3162 81.6454 28.7602 81.5808 29.2323 81.4741C29.71 81.3674 30.1063 81.1736 30.4407 80.8028C30.9072 80.2832 31.222 79.5923 31.4131 78.9294C31.4159 78.9154 31.4243 78.9098 31.4384 78.9126L31.8234 78.935C31.8234 78.935 31.8346 78.9407 31.8318 78.9463L31.1882 82.5021C31.1826 82.5301 31.1573 82.5498 31.1292 82.5498H21.7739C21.7739 82.5498 21.7598 82.5442 21.7598 82.5358L21.7402 82.1229C21.7402 82.1229 21.7486 82.1032 21.7598 82.1004C21.9285 82.1004 22.1448 82.0639 22.4118 81.9881C23.0245 81.8167 23.179 81.3645 23.224 80.786C23.238 80.5922 23.2408 80.3899 23.2296 80.1765C22.9683 75.1321 22.8137 72.065 22.7659 70.978C22.7491 70.5652 22.7013 70.1691 22.6282 69.79C22.5523 69.3968 22.4034 68.9895 22.0493 68.7845C21.7514 68.6131 21.4226 68.5176 21.0629 68.4952C21.0517 68.4952 21.046 68.4895 21.046 68.4783L21.0264 68.0654C21.0264 68.0654 21.032 68.0486 21.0432 68.0486L25.9865 68.3295C25.9865 68.3295 26.0005 68.3351 26.0005 68.3435L26.0202 68.7423C26.0202 68.7423 26.0146 68.762 26.0005 68.762C25.6043 68.7536 25.2755 68.821 25.0113 68.9614C24.7809 69.085 24.6347 69.3069 24.5785 69.6327C24.5167 69.9753 24.4998 70.3517 24.5251 70.759C24.5336 70.9106 24.7106 74.2417 25.0535 80.7523C25.0675 81.0331 25.1209 81.3336 25.3513 81.5106L25.3457 81.5134Z" fill="white"/>
<path d="M71.5153 74.6967C71.5153 74.6967 71.5237 74.7164 71.5321 74.7164C72.3949 74.7023 73.2632 74.6799 74.1316 74.649C74.4632 74.6377 74.7414 74.6012 74.9634 74.545C75.5873 74.3878 75.8374 73.9693 76.0173 73.3766C76.0988 73.107 76.1606 72.843 76.2028 72.5874C76.2028 72.579 76.2084 72.5733 76.2196 72.5733L76.6046 72.5481C76.6243 72.5481 76.6327 72.5565 76.6327 72.5761L76.3545 77.4661C76.3545 77.4661 76.3489 77.4801 76.3405 77.4801H75.9723C75.9723 77.4801 75.9498 77.4689 75.9498 77.4576C75.9358 77.0616 75.874 76.6965 75.7672 76.3566C75.6548 76.0027 75.4384 75.7668 75.0702 75.6573C74.733 75.5562 74.4154 75.5112 74.1091 75.514C73.8309 75.5168 72.9625 75.5393 71.4984 75.5786C71.4759 75.5786 71.4647 75.5927 71.4619 75.6151C71.3466 77.7975 71.2623 79.4911 71.2089 80.7017C71.2061 80.7859 71.2089 80.9685 71.2174 81.2494C71.2202 81.387 71.2764 81.4853 71.386 81.5471C71.49 81.6061 71.667 81.6426 71.9227 81.6566C72.704 81.6988 73.5021 81.7016 74.3171 81.665C74.5588 81.6538 74.8623 81.6061 75.222 81.5218C75.8065 81.3842 76.273 81.1202 76.6917 80.6539C77.1526 80.1399 77.5011 79.4911 77.74 78.8367C77.7512 78.8058 77.7793 78.7861 77.8102 78.7861H78.1194C78.1587 78.7861 78.1728 78.8058 78.1643 78.8423L77.2285 82.5077C77.2229 82.5301 77.2032 82.547 77.1779 82.547H67.7523C67.7523 82.547 67.7355 82.5385 67.7355 82.5273L67.758 82.1538C67.758 82.1538 67.7636 82.1369 67.7748 82.1341C67.9996 82.1032 68.1177 82.0892 68.1345 82.0864C68.4942 82.0358 68.9411 81.8617 69.1294 81.5274C69.2305 81.3477 69.3036 81.1511 69.3429 80.9404C69.416 80.5584 69.461 80.154 69.4806 79.7271C69.5172 78.8704 69.6633 75.8146 69.9134 70.5595C69.9303 70.2421 69.8937 69.95 69.8094 69.6832C69.6324 69.1327 68.9186 69.0119 68.4268 69.0007C68.4015 69.0007 68.3875 68.9867 68.3875 68.9614L68.3987 68.6243C68.3987 68.6019 68.4099 68.5878 68.4352 68.5878L77.7287 68.1272C77.7653 68.1272 77.7849 68.1441 77.7821 68.1806L77.681 71.1606C77.681 71.1746 77.6725 71.183 77.6585 71.1859L77.31 71.2027C77.2875 71.2027 77.2735 71.1943 77.2679 71.169C77.1386 70.2506 76.9587 69.3967 76.0651 69.2198C75.7306 69.1552 75.3906 69.1271 75.0421 69.1411C75.0337 69.1411 74.1513 69.1776 72.3949 69.2507C72.2459 69.2563 72.1082 69.2928 71.9818 69.3602C71.8188 69.4473 71.7626 69.804 71.7541 69.9697C71.667 71.5706 71.5883 73.1463 71.5125 74.6967H71.5153Z" fill="white"/>
<path d="M38.9585 79.1064C39.6779 76.6881 40.4592 74.1294 41.3107 71.4303C41.4624 70.9444 41.5355 70.5399 41.5299 70.2141C41.5186 69.7675 41.3107 69.4867 40.9032 69.3715C40.684 69.3097 40.4704 69.2732 40.2652 69.2648C40.2147 69.2648 40.1894 69.2367 40.1894 69.1833V68.9109C40.1894 68.8631 40.2147 68.8379 40.2624 68.8407L43.8933 68.9025C43.8933 68.9025 43.9073 68.9081 43.9073 68.9165V69.2929C43.9073 69.2929 43.8989 69.3125 43.8877 69.3125C43.4352 69.3575 43.1289 69.4811 42.9743 69.6917C42.6849 70.0793 42.5134 70.5708 42.3729 71.0202C41.1561 74.9102 39.9674 78.8199 38.8123 82.7436C38.8067 82.7661 38.7899 82.7774 38.7674 82.7774H38.5735C38.5482 82.7774 38.5313 82.7661 38.5229 82.7436C37.6798 80.6765 36.1089 76.8735 33.8157 71.3264C33.6612 70.95 33.4701 70.5427 33.248 70.1074C33.1469 69.9108 33.0401 69.7366 32.9221 69.5878C32.6467 69.2367 32.2841 69.0963 31.8542 69.012C31.8261 69.0064 31.8148 68.9895 31.8148 68.9614V68.6244C31.8148 68.6047 31.8261 68.5935 31.8457 68.5935L36.5192 68.748C36.536 68.748 36.5445 68.7564 36.5445 68.7733V69.1524C36.5445 69.1524 36.5389 69.1693 36.5276 69.1721C36.2382 69.1777 36.019 69.1889 35.8672 69.2114C35.4597 69.2648 35.2602 69.4951 35.2658 69.9024C35.2658 70.1383 35.4148 70.5315 35.5244 70.7955C36.6372 73.4975 37.7726 76.2668 38.9248 79.1092C38.9416 79.1485 38.9557 79.1485 38.9669 79.1092L38.9585 79.1064Z" fill="white"/>
<path d="M67.1987 73.6014C67.0919 72.8768 66.9008 72.2504 66.6226 71.7056C66.069 70.6495 65.2287 69.8827 64.0906 69.4137C63.1407 69.0177 62.1346 68.821 61.0724 68.821C60.3052 68.8295 59.5548 68.8379 58.8213 68.8547C58.3183 68.8716 57.8659 68.88 57.4528 68.8885C56.6856 68.8885 56.0926 68.8969 55.6458 68.9053C55.6373 68.9053 55.6289 68.9137 55.6289 68.9306V69.3098C55.6289 69.3098 55.6373 69.335 55.6542 69.335C56.042 69.335 56.4045 69.4165 56.7418 69.5822C56.916 69.6637 57.0481 69.8209 57.1043 69.9951C57.1858 70.2675 57.2364 70.5484 57.2448 70.8433C57.2448 70.8854 57.2364 71.1635 57.2279 71.6999C57.0874 77.396 57.0144 80.2889 57.0144 80.3816C57.0059 80.6709 56.9638 80.9517 56.8907 81.2214C56.8092 81.5359 56.6603 81.7494 56.4298 81.8814C56.1572 82.0303 55.8116 82.1202 55.39 82.1454C55.3816 82.1454 55.3732 82.1539 55.3732 82.1623V82.533C55.3732 82.5499 55.3816 82.5499 55.39 82.5499H60.1506C60.7941 82.5499 61.2466 82.533 61.5192 82.4993C62.6489 82.3589 63.7955 81.9629 64.6526 81.2635C65.6587 80.4378 66.3837 79.4013 66.8306 78.1318C67.0694 77.4325 67.2268 76.6797 67.2746 75.8737C67.3336 75.0816 67.2999 74.3317 67.2015 73.607L67.1987 73.6014ZM60.9206 81.623C60.4738 81.7045 60.0298 81.7382 59.5857 81.7297C59.1389 81.7213 58.8523 81.5809 58.8101 81.1034C58.8017 80.9293 58.7932 80.7074 58.8017 80.4181C58.8663 78.4633 58.9591 75.3231 59.0911 70.995C59.0996 70.6664 59.108 70.4417 59.1164 70.3265C59.1333 70.0288 59.2569 69.8322 59.4874 69.7423C59.5773 69.7002 59.7853 69.6777 60.1056 69.6693C61.9773 69.6356 63.6437 70.2394 64.5599 71.9274C64.8662 72.4976 65.0629 73.0987 65.1697 73.7503C65.6896 76.9746 64.6329 80.9293 60.9206 81.623Z" fill="white"/>
<path d="M48.0806 75.8765C48.0694 76.2445 48.0666 76.604 48.075 76.9551C48.0891 77.5196 48.0947 77.8791 48.0947 78.0308C48.0975 79.6205 48.1115 80.6541 48.1368 81.1316C48.1453 81.2945 48.1734 81.5248 48.356 81.5922C48.5303 81.6568 48.7157 81.6933 48.9125 81.7046C49.8146 81.7551 50.6717 81.7748 51.4361 81.7074C52.2342 81.6371 53.0126 81.4265 53.5747 80.8367C54.044 80.3452 54.3868 79.7272 54.6313 79.0588C54.6426 79.0251 54.6679 79.0082 54.7044 79.0082H55.0135C55.0388 79.0082 55.0585 79.0279 55.0585 79.0532C55.0585 79.056 55.0585 79.0616 55.0585 79.0644L54.2407 82.5303C54.2407 82.5303 54.2266 82.5528 54.2126 82.5528H44.8067C44.7701 82.5528 44.7505 82.5359 44.7505 82.4994L44.7364 82.1989C44.7364 82.1708 44.7561 82.1483 44.7842 82.1483C45.1299 82.1315 45.4306 82.0613 45.6891 81.9349C45.9701 81.7972 46.1472 81.5473 46.2202 81.1906C46.2961 80.8142 46.3214 80.4575 46.3158 80.0924C46.2708 77.4213 46.2427 75.2558 46.2287 73.5987C46.2287 73.5172 46.2146 73.3909 46.2146 73.2757C46.2146 72.8347 46.2034 72.0792 46.1837 71.0147C46.1809 70.8012 46.1668 70.6299 46.1416 70.4979C46.0741 70.1159 45.9364 69.7705 45.5767 69.5907C45.2451 69.425 44.8966 69.3407 44.5257 69.3351C44.5144 69.3351 44.5032 69.3239 44.5032 69.3126V68.9391C44.5032 68.9391 44.5088 68.925 44.5172 68.925H54.1873C54.2491 68.925 54.28 68.9559 54.28 69.0177V71.7955C54.28 71.7955 54.2744 71.8096 54.266 71.8124L53.8697 71.832C53.8697 71.832 53.8529 71.8264 53.8529 71.818C53.8023 71.4444 53.6955 71.0737 53.5325 70.7058C53.3611 70.3182 53.0744 70.0654 52.6754 69.9418C52.2679 69.8182 51.8126 69.7592 51.3012 69.762C50.1096 69.7705 49.216 69.7677 48.6174 69.7564C48.252 69.7508 48.0666 69.9306 48.0638 70.2957C48.0581 70.981 48.0638 72.5454 48.0806 74.9862C48.0806 74.9974 48.0919 75.0087 48.1031 75.0087C49.7021 75.0087 50.5621 75.0143 50.6857 75.0171C51.023 75.0227 51.3686 74.9862 51.7199 74.9075C52.0684 74.8261 52.3185 74.6323 52.4702 74.3261C52.6389 73.9835 52.7513 73.5818 52.8075 73.1184C52.8075 73.1016 52.8187 73.0931 52.8356 73.0903L53.2037 73.0707C53.229 73.0707 53.2402 73.0819 53.2402 73.1072L53.1869 77.7247C53.1869 77.7443 53.1756 77.7555 53.1559 77.7555H52.8018C52.7822 77.7555 52.7709 77.7443 52.7681 77.7247C52.7541 77.5533 52.7063 77.2865 52.6164 76.9214C52.4815 76.3624 52.1246 76.0338 51.5457 75.9327C51.1944 75.8709 50.9415 75.84 50.7869 75.84C49.3846 75.84 48.4965 75.84 48.1256 75.84C48.1031 75.84 48.0919 75.8513 48.0919 75.8737L48.0806 75.8765Z" fill="white"/>
<path d="M42.8002 86.8584C42.2241 86.2658 41.4709 86.0186 40.6138 86.0271C39.7567 86.0271 39.0147 86.2827 38.4358 86.8837C37.8176 87.5353 37.6349 88.3667 37.6433 89.2402C37.6433 90.1137 37.8344 90.9394 38.4611 91.5826C39.0457 92.1753 39.796 92.4224 40.6559 92.414C41.5131 92.414 42.255 92.1584 42.8339 91.5574C43.4521 90.9057 43.6348 90.0744 43.6264 89.2009C43.6264 88.3274 43.4353 87.5016 42.8002 86.8584ZM42.2718 89.9087C42.1145 90.7485 41.5046 91.327 40.6306 91.327C39.7567 91.327 39.1553 90.7513 39.0063 89.9087C38.9642 89.6868 38.9417 89.4565 38.9473 89.2149C38.9473 88.9678 38.9642 88.7374 39.0063 88.5156C39.1553 87.6758 39.7651 87.1056 40.6391 87.1056C41.5131 87.1056 42.1145 87.6814 42.2718 88.524C42.314 88.7374 42.3308 88.9677 42.3308 89.2177C42.3308 89.4677 42.314 89.6952 42.2718 89.9115V89.9087Z" fill="white"/>
<path d="M29.7156 88.5464C30.109 88.5464 30.5081 88.5464 30.9099 88.5464C30.9184 88.5464 30.9268 88.538 30.9268 88.5296V86.1731C30.9268 86.1534 30.9408 86.1394 30.9605 86.1394H32.1521C32.1745 86.1394 32.1858 86.1506 32.1858 86.1731V92.2764C32.1858 92.296 32.1717 92.3101 32.1521 92.3101H30.9437C30.9437 92.3101 30.9268 92.3017 30.9268 92.2932V89.6306C30.9268 89.6306 30.9184 89.6109 30.9071 89.6109C30.5109 89.6109 30.1146 89.6109 29.7156 89.6109C29.3165 89.6109 28.9175 89.6109 28.5212 89.6109C28.51 89.6109 28.5015 89.6194 28.5015 89.6306V92.2932C28.5015 92.2932 28.4959 92.3101 28.4847 92.3101H27.2763C27.2566 92.3101 27.2426 92.296 27.2426 92.2764V86.1731C27.2426 86.1506 27.2538 86.1394 27.2763 86.1394H28.4678C28.4875 86.1394 28.5015 86.1534 28.5015 86.1731V88.5296C28.5015 88.5296 28.5072 88.5464 28.5184 88.5464C28.9231 88.5464 29.3221 88.5464 29.7156 88.5464Z" fill="white"/>
<path d="M51.0398 86.1394C51.8435 86.1394 52.6529 86.1394 53.465 86.1394C53.4819 86.1394 53.4931 86.1534 53.4931 86.1675V87.1646C53.4931 87.187 53.4819 87.1983 53.4594 87.1983H51.6974C51.6749 87.1983 51.6637 87.2095 51.6637 87.232V92.2764C51.6637 92.2932 51.6496 92.3045 51.6356 92.3045C51.4585 92.3045 51.259 92.3073 51.0398 92.3073C50.8206 92.3073 50.621 92.3073 50.444 92.3045C50.4271 92.3045 50.4159 92.2904 50.4159 92.2764V87.232C50.4159 87.2095 50.4047 87.1983 50.3822 87.1983H48.6201C48.5977 87.1983 48.5864 87.187 48.5864 87.1646V86.1675C48.5864 86.1506 48.6005 86.1394 48.6145 86.1394C49.4267 86.1394 50.236 86.1394 51.0398 86.1394Z" fill="white"/>
<path d="M60.0073 88.5296H63.0368C63.0536 88.5296 63.0705 88.5436 63.0705 88.5605V89.5548C63.0705 89.5716 63.0564 89.5885 63.0368 89.5885H60.0073C59.9905 89.5885 59.9736 89.6025 59.9736 89.6222V91.2147C59.9736 91.2315 59.9876 91.2484 60.0073 91.2484H63.3965C63.4133 91.2484 63.4302 91.2624 63.4302 91.2793V92.2764C63.4302 92.2932 63.4162 92.3101 63.3965 92.3101H58.7427C58.7258 92.3101 58.709 92.296 58.709 92.2764V86.1731C58.709 86.1563 58.723 86.1394 58.7427 86.1394H63.2785C63.2953 86.1394 63.3122 86.1534 63.3122 86.1731V87.1646C63.3122 87.1814 63.2953 87.1983 63.2785 87.1983H60.0101C59.9933 87.1983 59.9764 87.2151 59.9764 87.232V88.4987C59.9764 88.5155 59.9933 88.5324 60.0101 88.5324L60.0073 88.5296Z" fill="white"/>
<path d="M70.2338 91.2456H73.2492C73.266 91.2456 73.2801 91.2596 73.2801 91.2765V92.2764C73.2801 92.2932 73.266 92.3073 73.2492 92.3073H68.9691C68.9523 92.3073 68.9382 92.2932 68.9382 92.2764V86.204C68.9382 86.1871 68.9523 86.1731 68.9691 86.1731H70.1719C70.1888 86.1731 70.2028 86.1871 70.2028 86.204V91.2147C70.2028 91.2315 70.2169 91.2456 70.2338 91.2456Z" fill="white"/>
<path d="M42.7805 98.346H45.7481C45.7481 98.346 45.7706 98.3544 45.7706 98.3685C45.7706 98.3769 45.7678 98.3825 45.7622 98.3881L43.3622 100.13C43.3622 100.13 43.351 100.146 43.3538 100.155L44.2727 102.975C44.2727 102.975 44.2727 103 44.2587 103.003C44.2502 103.003 44.2446 103.003 44.239 103L41.839 101.256C41.839 101.256 41.8222 101.25 41.8137 101.256L39.4138 103C39.4138 103 39.3885 103.006 39.3829 102.994C39.3773 102.989 39.3773 102.98 39.3801 102.975L40.299 100.155C40.299 100.155 40.299 100.135 40.2906 100.13L37.8906 98.3881C37.8906 98.3881 37.8766 98.3657 37.885 98.3572C37.8906 98.3516 37.8963 98.3488 37.9047 98.3488H40.8723C40.8723 98.3488 40.8892 98.3432 40.8948 98.3348L41.8109 95.5149C41.8109 95.5149 41.8278 95.498 41.839 95.5008C41.8447 95.5008 41.8503 95.5092 41.8531 95.5149L42.7692 98.3348C42.7692 98.3348 42.7805 98.3488 42.7917 98.3488L42.7805 98.346Z" fill="white"/>
<path d="M74.9943 98.3432H77.9591C77.9591 98.3432 77.9816 98.3544 77.9816 98.3657C77.9816 98.3741 77.9788 98.3797 77.9732 98.3825L75.5761 100.127C75.5761 100.127 75.5648 100.144 75.5676 100.152L76.481 102.972C76.481 102.972 76.4781 102.994 76.4669 103C76.4613 103 76.4529 103 76.4472 102.997L74.0473 101.259C74.0473 101.259 74.0276 101.253 74.022 101.259L71.622 102.997C71.622 102.997 71.5995 103.003 71.5911 102.992C71.5883 102.986 71.5855 102.98 71.5883 102.972L72.5016 100.152C72.5016 100.152 72.5016 100.132 72.4932 100.127L70.0961 98.3825C70.0961 98.3825 70.0848 98.3629 70.0904 98.3516C70.0933 98.346 70.1017 98.3432 70.1073 98.3432H73.0721C73.0721 98.3432 73.089 98.3348 73.0918 98.3263L74.0107 95.5092C74.0107 95.5092 74.0276 95.4924 74.0388 95.4952C74.0445 95.4952 74.0501 95.5008 74.0529 95.5092L74.9718 98.3263C74.9718 98.3263 74.9831 98.3404 74.9915 98.3404L74.9943 98.3432Z" fill="white"/>
<path d="M26.6777 98.3432H29.6397C29.6397 98.3432 29.6622 98.3544 29.6622 98.3685C29.6622 98.3769 29.6594 98.3825 29.6538 98.3881L27.2566 100.13C27.2566 100.13 27.2454 100.146 27.2482 100.155L28.1615 102.972C28.1615 102.972 28.1615 102.997 28.1475 103C28.139 103 28.1334 103 28.1278 102.997L25.7278 101.259C25.7278 101.259 25.711 101.253 25.7025 101.259L23.3026 102.997C23.3026 102.997 23.2773 103.003 23.2717 102.992C23.2661 102.986 23.2661 102.978 23.2689 102.972L24.1822 100.155C24.1822 100.155 24.1822 100.135 24.1738 100.13L21.7766 98.3881C21.7766 98.3881 21.7626 98.3657 21.771 98.3572C21.7766 98.3516 21.7822 98.3488 21.7907 98.3488H24.7527C24.7527 98.3488 24.7724 98.3404 24.7752 98.332L25.6941 95.5149C25.6941 95.5149 25.711 95.498 25.7222 95.5008C25.7278 95.5008 25.7335 95.5092 25.7363 95.5149L26.6552 98.332C26.6552 98.332 26.6665 98.3488 26.6777 98.3488V98.3432Z" fill="white"/>
<path d="M58.8888 98.3432H61.8508C61.8508 98.3432 61.8733 98.3544 61.8733 98.3685C61.8733 98.3769 61.8704 98.3825 61.8648 98.3881L59.4677 100.13C59.4677 100.13 59.4564 100.146 59.4592 100.155L60.3726 102.972C60.3726 102.972 60.3726 102.997 60.3585 103C60.3501 103 60.3445 103 60.3389 102.997L57.9389 101.259C57.9389 101.259 57.922 101.253 57.9136 101.259L55.5137 102.997C55.5137 102.997 55.4884 103.003 55.4827 102.992C55.4771 102.986 55.4771 102.978 55.4799 102.972L56.3933 100.155C56.3933 100.155 56.3933 100.135 56.3848 100.13L53.9877 98.3881C53.9877 98.3881 53.9736 98.3657 53.9821 98.3572C53.9877 98.3516 53.9933 98.3488 54.0017 98.3488H56.9637C56.9637 98.3488 56.9806 98.3404 56.9862 98.332L57.9052 95.5149C57.9052 95.5149 57.922 95.498 57.9333 95.5008C57.9389 95.5008 57.9445 95.5092 57.9473 95.5149L58.8663 98.332C58.8663 98.332 58.8775 98.346 58.8888 98.346V98.3432Z" fill="white"/>
</g>
<defs>
<clipPath id="clip0_1_592">
<rect width="100" height="103" fill="white"/>
</clipPath>
</defs>
</svg>
