<svg width="58" height="14" viewBox="0 0 58 14" fill="none" xmlns="http://www.w3.org/2000/svg">
<path d="M11.4945 3.33002L6.68375 0.552463C6.29954 0.328337 5.82727 0.328337 5.44306 0.552463L0.624351 3.33002C0.240135 3.55415 0 3.96238 0 4.41063V9.97375C0 10.422 0.240135 10.8302 0.624351 11.0544L5.44306 13.8319C5.82727 14.056 6.29954 14.056 6.68375 13.8319L11.5025 11.0544C11.8867 10.8302 12.1268 10.422 12.1268 9.97375V4.41063C12.1188 3.96238 11.8787 3.55415 11.4945 3.33002ZM10.7981 9.20532C10.7981 9.65357 10.5579 10.0618 10.1737 10.2859L6.67575 12.3031C6.29153 12.5272 5.81927 12.5272 5.43505 12.3031L1.93709 10.2859C1.55287 10.0618 1.31274 9.65357 1.31274 9.20532V5.17106C1.31274 4.7228 1.55287 4.31458 1.93709 4.09045L5.43505 2.07332C5.81927 1.84919 6.29153 1.84919 6.67575 2.07332L10.1737 4.09045C10.5579 4.31458 10.7981 4.7228 10.7981 5.17106V9.20532Z" fill="#FFB71B"/>
<path d="M49.8581 6.72392V7.61242C49.674 7.30025 49.4258 7.05211 49.1137 6.88401C48.8095 6.71592 48.4493 6.62787 48.041 6.62787C47.5928 6.62787 47.1846 6.73993 46.8084 6.97206C46.4321 7.20419 46.136 7.51637 45.9199 7.91659C45.7037 8.31682 45.5917 8.74906 45.5917 9.22132C45.5917 9.94173 45.8318 10.5581 46.3121 11.0624C46.7923 11.5666 47.3687 11.8228 48.0491 11.8228C48.4573 11.8228 48.8095 11.7347 49.1217 11.5666C49.4258 11.3985 49.674 11.1504 49.8661 10.8302V11.7107C49.8661 12.0949 49.722 12.4151 49.4418 12.6553C49.1617 12.9034 48.8095 13.0235 48.3932 13.0235C48.017 13.0235 47.6969 12.9434 47.4327 12.7833C47.1686 12.6232 47.0325 12.4071 47.0165 12.127H45.8558C45.8638 12.4071 45.9279 12.6553 46.0479 12.8714C46.168 13.0955 46.3121 13.2716 46.4882 13.4077C46.6643 13.5438 46.8644 13.6558 47.0965 13.7519C47.3286 13.8479 47.5528 13.904 47.7689 13.944C47.993 13.976 48.2091 14 48.4253 14C49.1857 14 49.81 13.7839 50.3063 13.3677C50.7946 12.9434 51.0427 12.3751 51.0427 11.6707V6.72392H49.8581ZM49.4098 10.3019C49.1137 10.5901 48.7374 10.7342 48.2892 10.7342C47.8489 10.7342 47.4807 10.5901 47.1846 10.2939C46.8884 9.99776 46.7363 9.64556 46.7363 9.22132C46.7363 8.79709 46.8884 8.44489 47.1846 8.14872C47.4887 7.85256 47.8489 7.70848 48.2892 7.70848C48.7374 7.70848 49.1056 7.85256 49.4018 8.14072C49.698 8.42888 49.8501 8.78908 49.8501 9.22132C49.8581 9.65357 49.706 10.0138 49.4098 10.3019Z" fill="white"/>
<path d="M20.0496 4.54681V7.59653H16.4956V4.54681H15.1268V11.7909H16.4956V8.86124H20.0576V11.7909H21.4104V4.54681H20.0496Z" fill="white"/>
<path d="M22.6747 6.6601V11.783H23.9394V6.6601H22.6747Z" fill="white"/>
<path d="M28.8146 6.66791L28.1102 8.37287L27.3337 10.5021L26.5493 8.34885L25.8449 6.66791H24.4681L26.6534 11.7988H28.0221L30.1833 6.66791H28.8146Z" fill="white"/>
<path d="M34.954 7.34062C34.4817 6.79631 33.8093 6.53217 32.9368 6.53217C32.1124 6.53217 31.456 6.7803 30.9677 7.27658C30.4715 7.77286 30.2313 8.41322 30.2313 9.19766C30.2313 10.0221 30.4795 10.6865 30.9837 11.1748C31.48 11.6711 32.1684 11.9112 33.0329 11.9112C33.4411 11.9112 33.8414 11.8391 34.2416 11.6951C34.6418 11.551 34.97 11.3509 35.2261 11.0787L34.4177 10.2783C34.2816 10.4223 34.0815 10.5424 33.8173 10.6225C33.5532 10.7025 33.297 10.7505 33.0489 10.7505C32.6167 10.7505 32.2645 10.6465 31.9923 10.4544C31.7202 10.2543 31.5681 9.99011 31.528 9.66993H35.5143C35.6103 8.66136 35.4262 7.87692 34.954 7.34062ZM31.5521 8.63735C31.6401 8.31717 31.8162 8.06903 32.0724 7.90093C32.3285 7.73284 32.6327 7.64479 32.9849 7.64479C33.3531 7.64479 33.6572 7.73284 33.8974 7.90093C34.1295 8.06903 34.2656 8.31717 34.3136 8.63735H31.5521Z" fill="white"/>
<path d="M42.5819 6.78807C42.4298 6.37184 42.2137 5.99563 41.9335 5.65143C41.6453 5.30724 41.2691 5.04309 40.7969 4.84298C40.3246 4.64287 39.7963 4.54681 39.196 4.54681H36.3544V11.7829H39.196C39.8043 11.7829 40.3486 11.6788 40.8289 11.4707C41.3092 11.2626 41.6934 10.9824 41.9735 10.6302C42.2617 10.278 42.4698 9.88581 42.6139 9.45357C42.758 9.02133 42.822 8.57307 42.814 8.10081C42.806 7.63655 42.734 7.1963 42.5819 6.78807ZM40.9089 9.76574C40.5327 10.23 39.9564 10.4621 39.196 10.4621H37.7071V5.83554H39.196C39.9244 5.83554 40.4847 6.05166 40.8689 6.49191C41.2531 6.93215 41.4532 7.46045 41.4612 8.09281C41.4772 8.74117 41.2931 9.30148 40.9089 9.76574Z" fill="white"/>
<path d="M43.5985 6.6601V11.783H44.8632V6.6601H43.5985Z" fill="white"/>
<path d="M52.0116 6.6601V11.783H53.2763V6.6601H52.0116Z" fill="white"/>
<path d="M57.4623 10.5501C57.2542 10.6541 57.0541 10.7022 56.854 10.7022C56.6538 10.7022 56.4938 10.6381 56.3737 10.5181C56.2536 10.39 56.1896 10.2139 56.1896 9.98176V7.78053H57.6064V6.69192H56.1976V5.2431L54.9329 5.37918V6.69192H53.9803V7.78053H54.9329V9.98176C54.9329 10.6061 55.093 11.0704 55.4212 11.3906C55.7493 11.7107 56.1976 11.8628 56.7579 11.8388C57.1181 11.8308 57.4623 11.7588 57.8065 11.6227L57.4623 10.5501Z" fill="white"/>
<path d="M53.1161 4.68307C52.972 4.563 52.8119 4.49896 52.6438 4.49896C52.4677 4.49896 52.3156 4.563 52.1716 4.68307C52.0275 4.80313 51.9554 4.97123 51.9554 5.19535C51.9554 5.41147 52.0275 5.57957 52.1716 5.70764C52.3156 5.82771 52.4757 5.89174 52.6438 5.89174C52.8199 5.89174 52.972 5.82771 53.1161 5.70764C53.2602 5.58757 53.3322 5.41948 53.3322 5.19535C53.3322 4.97123 53.2602 4.80313 53.1161 4.68307Z" fill="white"/>
<path d="M23.7797 4.68307C23.6356 4.563 23.4755 4.49896 23.3074 4.49896C23.1313 4.49896 22.9792 4.563 22.8351 4.68307C22.6911 4.80313 22.619 4.97123 22.619 5.19535C22.619 5.41147 22.6911 5.57957 22.8351 5.70764C22.9792 5.82771 23.1393 5.89174 23.3074 5.89174C23.4835 5.89174 23.6356 5.82771 23.7797 5.70764C23.9238 5.58757 23.9958 5.41948 23.9958 5.19535C23.9958 4.97123 23.9238 4.80313 23.7797 4.68307Z" fill="white"/>
<path d="M44.7113 4.68307C44.5672 4.563 44.4071 4.49896 44.239 4.49896C44.0629 4.49896 43.9109 4.563 43.7668 4.68307C43.6227 4.80313 43.5507 4.97123 43.5507 5.19535C43.5507 5.41147 43.6227 5.57957 43.7668 5.70764C43.9109 5.82771 44.0709 5.89174 44.239 5.89174C44.4151 5.89174 44.5672 5.82771 44.7113 5.70764C44.8554 5.58757 44.9274 5.41948 44.9274 5.19535C44.9274 4.97123 44.8554 4.80313 44.7113 4.68307Z" fill="white"/>
</svg>
