<svg width="16" height="18" viewBox="0 0 16 18" fill="none" xmlns="http://www.w3.org/2000/svg">
<path d="M13.5627 3.84956C13.4459 3.78677 13.3322 3.71794 13.222 3.64332C12.9016 3.423 12.6078 3.1634 12.347 2.87011C11.6944 2.09352 11.4506 1.30568 11.3609 0.754087H11.3645C11.2895 0.296235 11.3205 0 11.3252 0H8.35288V11.9537C8.35288 12.1141 8.35288 12.2728 8.34639 12.4295C8.34639 12.449 8.34459 12.467 8.3435 12.488C8.3435 12.4966 8.3435 12.5056 8.3417 12.5146C8.3417 12.5169 8.3417 12.5191 8.3417 12.5214C8.31037 12.9503 8.17818 13.3646 7.95676 13.7279C7.73533 14.0912 7.43146 14.3923 7.07188 14.6048C6.69711 14.8265 6.27324 14.9428 5.84207 14.9423C4.45723 14.9423 3.33486 13.7678 3.33486 12.3174C3.33486 10.867 4.45723 9.69252 5.84207 9.69252C6.10421 9.69226 6.36474 9.73517 6.61399 9.81963L6.61759 6.67204C5.86095 6.57039 5.09226 6.63293 4.36002 6.85572C3.62778 7.07851 2.94787 7.45672 2.36321 7.96648C1.8509 8.42943 1.4202 8.98181 1.09049 9.59877C0.965027 9.82376 0.491636 10.7278 0.43431 12.1951C0.398256 13.028 0.638737 13.8908 0.753389 14.2474V14.2549C0.825497 14.4649 1.10492 15.1815 1.56028 15.7856C1.92747 16.2702 2.36129 16.6958 2.84777 17.0489V17.0414L2.85498 17.0489C4.2939 18.0658 5.8893 17.9991 5.8893 17.9991C6.16547 17.9875 7.09062 17.9991 8.14124 17.4813C9.30651 16.9072 9.96991 16.0518 9.96991 16.0518C10.3937 15.5408 10.7307 14.9583 10.9664 14.3295C11.2354 13.5942 11.3252 12.7122 11.3252 12.3598V6.01807C11.3612 6.04057 11.8415 6.37093 11.8415 6.37093C11.8415 6.37093 12.5334 6.83216 13.6128 7.13252C14.3873 7.34626 15.4307 7.39126 15.4307 7.39126V4.32241C15.0651 4.36366 14.3227 4.24366 13.5627 3.84956Z" fill="#FFB71B"/>
</svg>
