<svg width="18" height="18" viewBox="0 0 18 18" fill="none" xmlns="http://www.w3.org/2000/svg">
<path d="M4.6679 18V5.85472H1.17177V18H4.6679ZM2.92057 4.19677C4.13949 4.19677 4.89834 3.26415 4.89834 2.09865C4.87553 0.906586 4.13948 0 2.94375 0C1.74719 0 0.965698 0.906586 0.965698 2.09854C0.965698 3.26405 1.72428 4.19666 2.89766 4.19666L2.92057 4.19677ZM6.60306 18H10.0989V11.2183C10.0989 10.8557 10.1217 10.4923 10.2141 10.2334C10.4667 9.50783 11.0419 8.75678 12.008 8.75678C13.2727 8.75678 13.7789 9.87044 13.7789 11.5033V18H17.2747V11.0363C17.2747 7.30591 15.5502 5.56998 13.2501 5.56998C11.3643 5.56998 10.5361 6.78701 10.0759 7.61594H10.0992V5.85514H6.60324C6.64887 6.99451 6.60306 18 6.60306 18Z" fill="#FFB71B"/>
</svg>
