<svg width="16" height="20" viewBox="0 0 16 20" fill="none" xmlns="http://www.w3.org/2000/svg">
<path d="M7.97101 4.09812C5.85507 4.09812 4.11594 5.82973 4.11594 7.93651C4.11594 10.0433 5.85507 11.7749 7.97101 11.7749C10.087 11.7749 11.8261 10.0433 11.8261 7.93651C11.8261 5.82973 10.087 4.09812 7.97101 4.09812ZM7.97101 10.2453C6.69565 10.2453 5.65217 9.20635 5.65217 7.93651C5.65217 6.66667 6.69565 5.62771 7.97101 5.62771C9.24638 5.62771 10.2899 6.66667 10.2899 7.93651C10.2899 9.20635 9.24638 10.2453 7.97101 10.2453ZM7.97101 0C3.42029 0 0 3.40548 0 7.93651C0 14.3146 4.86957 18.2684 6.98551 19.6825C7.30435 19.8846 7.65217 20 8 20C8.34783 20 8.69565 19.8846 9.01449 19.6825C11.1014 18.2684 16 14.2857 16 7.93651C16 3.40548 12.5797 0 8.02899 0H7.97101ZM8.11594 18.4127C8.11594 18.4127 7.91304 18.4704 7.82609 18.4127C6.34783 17.4315 1.53623 13.7374 1.53623 7.93651C1.53623 4.30014 4.31884 1.52958 7.97101 1.52958C11.6232 1.52958 14.4058 4.27128 14.4058 7.93651C14.4058 13.5642 10 17.1429 8.11594 18.4127Z" fill="#FFB71B"/>
</svg>
