<svg width="18" height="18" viewBox="0 0 18 18" fill="none" xmlns="http://www.w3.org/2000/svg">
<path d="M5.61426 0H12.9207C15.7041 0 17.9656 2.34 17.9656 5.22V12.78C17.9656 14.1644 17.4341 15.4922 16.488 16.4711C15.5419 17.45 14.2587 18 12.9207 18H5.61426C2.83085 18 0.569336 15.66 0.569336 12.78V5.22C0.569336 3.83557 1.10085 2.50784 2.04696 1.5289C2.99306 0.549963 4.27626 0 5.61426 0ZM5.44029 1.8C4.60981 1.8 3.81335 2.14136 3.22611 2.74897C2.63887 3.35659 2.30896 4.1807 2.30896 5.04V12.96C2.30896 14.751 3.70936 16.2 5.44029 16.2H13.0947C13.9251 16.2 14.7216 15.8586 15.3088 15.251C15.8961 14.6434 16.226 13.8193 16.226 12.96V5.04C16.226 3.249 14.8256 1.8 13.0947 1.8H5.44029ZM13.834 3.15C14.1224 3.15 14.3989 3.26853 14.6028 3.47951C14.8067 3.69048 14.9213 3.97663 14.9213 4.275C14.9213 4.57337 14.8067 4.85952 14.6028 5.0705C14.3989 5.28147 14.1224 5.4 13.834 5.4C13.5456 5.4 13.2691 5.28147 13.0652 5.0705C12.8613 4.85952 12.7467 4.57337 12.7467 4.275C12.7467 3.97663 12.8613 3.69048 13.0652 3.47951C13.2691 3.26853 13.5456 3.15 13.834 3.15ZM9.26747 4.5C10.4209 4.5 11.5271 4.97411 12.3427 5.81802C13.1583 6.66193 13.6165 7.80653 13.6165 9C13.6165 10.1935 13.1583 11.3381 12.3427 12.182C11.5271 13.0259 10.4209 13.5 9.26747 13.5C8.11403 13.5 7.00783 13.0259 6.19222 12.182C5.37661 11.3381 4.9184 10.1935 4.9184 9C4.9184 7.80653 5.37661 6.66193 6.19222 5.81802C7.00783 4.97411 8.11403 4.5 9.26747 4.5ZM9.26747 6.3C8.57541 6.3 7.91168 6.58446 7.42232 7.09081C6.93295 7.59716 6.65803 8.28392 6.65803 9C6.65803 9.71608 6.93295 10.4028 7.42232 10.9092C7.91168 11.4155 8.57541 11.7 9.26747 11.7C9.95954 11.7 10.6233 11.4155 11.1126 10.9092C11.602 10.4028 11.8769 9.71608 11.8769 9C11.8769 8.28392 11.602 7.59716 11.1126 7.09081C10.6233 6.58446 9.95954 6.3 9.26747 6.3Z" fill="#FFB71B"/>
</svg>
