<svg xmlns="http://www.w3.org/2000/svg" width="100" height="103" viewBox="0 0 100 103" fill="none"><g clip-path="url(#clip0_1_371)"><path d="M66.6705 49.8261C66.6789 50.048 66.6705 50.2137 66.6705 50.2137C66.6705 60.4766 57.7873 61.8529 54.134 61.8529C50.4806 61.8529 47.2207 60.9204 46.9903 60.7799C46.7767 60.6564 46.7683 60.3839 46.7683 60.3418V45.7338C44.7309 45.5597 42.8929 45.3378 41.2265 45.0401V53.2667C41.2265 53.2667 41.3333 58.856 40.4846 60.1901C39.6443 61.5327 38.7928 62.013 37.7474 62.1028C36.6992 62.2011 36.2383 62.1281 35.9235 62.1281H35.4711V63.6195H37.6237C43.5787 63.6195 47.2151 63.4538 50.8038 63.4538C54.3925 63.4538 58.0711 63.8976 62.649 62.5213C65.4874 61.6647 68.7107 59.8587 70.7482 56.7748V56.7663C71.5659 55.2918 69.6184 51.6236 66.6733 49.8177L66.6705 49.8261ZM52.1134 13.0689C50.4385 13.0857 46.2652 13.0604 43.8737 13.052C39.13 13.052 36.0303 13.0604 36.0303 13.0604H35.4683V14.5434H36.7891C38.3797 14.5434 39.2705 14.8243 40.1698 15.9112C41.0607 17.0066 41.2012 20.0007 41.2012 21.8713C41.2012 23.7418 41.218 28.8452 41.218 28.8452V33.3138C41.9852 33.4374 42.7862 33.5441 43.6264 33.6509C50.1912 34.4429 54.3981 34.5497 59.8107 35.7209C59.909 35.6872 68.0925 33.0835 68.0925 25.1771C68.0925 16.678 59.6392 12.9846 52.1162 13.066L52.1134 13.0689ZM49.2497 34.1564C47.6507 34.1564 47.1392 34.0329 46.9397 33.8419C46.743 33.6593 46.7992 33.033 46.7992 33.033L46.7486 15.8607C46.7486 15.8607 46.7065 15.6304 46.8638 15.5068C47.0212 15.3748 49.0081 14.9535 51.0455 14.9535C53.0829 14.9535 62.0083 15.5545 62.0083 24.8204C62.0083 31.1764 55.081 34.1508 49.2469 34.1508L49.2497 34.1564Z" fill="white"></path><path d="M72.7997 49.5706C72.7997 42.3831 66.5637 37.6252 61.3929 36.0917C61.3592 36.0833 61.3282 36.0748 61.303 36.0664C60.7915 35.9344 60.2885 35.8192 59.8107 35.7209C54.401 34.5497 50.194 34.443 43.6265 33.6509C42.7862 33.5442 41.9853 33.4375 41.2181 33.3139C35.0974 32.3337 31.1068 30.5024 27.2708 25.1125C27.2708 25.1125 25.7701 33.1173 29.8759 38.6307C32.6974 42.4056 36.1681 44.1217 41.2265 45.043C42.893 45.3407 44.7309 45.5626 46.7683 45.7367C47.5777 45.8013 48.4095 45.8687 49.2835 45.9277C59.0744 46.5877 63.3151 47.9219 66.4064 49.6717C66.4879 49.7222 66.5806 49.77 66.6705 49.829C69.6157 51.6349 71.5604 55.3031 70.7454 56.7776C71.9988 54.8818 72.7997 52.5084 72.7997 49.5734V49.5706ZM67.3057 48.7982C67.1989 48.7336 67.1005 48.6746 67.0078 48.6156C64.1778 47.0259 60.0861 45.4418 49.365 44.7172C48.432 44.6526 47.617 44.5936 46.8751 44.5262C44.6887 44.3436 42.9661 44.1301 41.4401 43.8493C36.3845 42.9336 32.8632 41.1529 30.3958 37.8471C28.1279 34.7969 27.5012 30.0727 27.7823 26.7921C31.0309 31.6146 35.9657 33.7015 41.0298 34.5076C41.8223 34.6396 42.6457 34.7463 43.4803 34.8446C45.633 35.1086 47.4962 35.2912 49.2947 35.471C52.8834 35.8249 55.9747 36.1226 59.555 36.8978C60.0159 36.9961 60.5048 37.1112 61.0079 37.2348L61.0669 37.2517C66.131 38.7515 71.5913 43.2538 71.5913 49.5677C71.5913 50.7137 71.4592 51.8091 71.195 52.8314C70.2873 51.2473 68.8457 49.7391 67.3113 48.7925L67.3057 48.7982Z" fill="white"></path><path d="M23.8619 23.3824C19.4133 23.4189 17.5613 28.0645 17.6035 30.9153C17.6456 33.7661 18.632 35.7856 18.632 35.7856C18.632 35.7856 18.6011 35.1705 18.5505 33.9346C18.4634 31.7354 20.1861 24.7362 25.52 24.739C26.5485 24.739 27.2567 25.0901 27.2567 25.0901C27.2567 25.0901 25.7785 23.3684 23.8619 23.3824Z" fill="white"></path><path d="M22.6479 23.3093C23.0357 23.2278 23.4432 23.1857 23.8591 23.1829C24.8202 23.1745 25.6633 23.5677 26.2871 23.989C25.4216 23.1015 23.786 21.8179 21.5884 21.8235C13.4724 21.8432 11.2888 29.6682 11.2045 33.179C11.1483 35.5495 11.5389 37.4622 11.5389 37.4622C11.5389 37.4622 11.8958 31.3786 15.878 27.7245C17.0133 26.6825 18.1964 25.8961 19.3683 25.3344C20.1861 24.3597 21.2708 23.5986 22.6479 23.3093Z" fill="white"></path><path d="M18.3594 20.7337C19.6381 20.8292 21.0854 21.1775 22.4399 21.6802C25.1743 22.0734 26.8633 24.2895 27.1274 24.6574C26.9363 24.2389 26.3911 23.0846 25.9162 22.3431C25.0956 21.0623 22.6563 18.7873 19.5116 18.6609C14.012 18.4418 12.7417 23.2053 12.7024 23.3767C12.8204 23.2362 15.1445 20.495 18.3622 20.7337H18.3594Z" fill="white"></path><path d="M29.679 22.1577C27.9198 22.9188 27.2622 25.0899 27.2622 25.0899C27.2622 25.0899 27.7709 24.4804 28.7095 24.0676C33.5881 21.9105 37.9917 27.6205 38.8011 29.6653C39.2564 30.8168 39.4756 31.3926 39.4756 31.3926C39.4756 31.3926 39.5627 29.1485 38.447 26.5223C37.3341 23.8962 33.7595 20.3938 29.679 22.1577Z" fill="white"></path><path d="M40.3497 23.6071C39.8411 23.3347 39.3043 23.0959 38.7367 22.9049C37.2781 22.4078 35.8786 22.1663 34.5775 22.1269C33.4337 21.5652 32.1354 21.3096 30.7612 21.5989C30.3734 21.6775 29.9827 21.8039 29.6005 21.9696C28.7209 22.3516 28.1055 23.051 27.7036 23.6914C28.1364 22.5258 29.1144 20.6945 31.1265 19.8098C34.8023 18.2004 37.9217 18.9194 40.3188 20.4445C40.3413 20.9557 40.3469 21.4416 40.3469 21.8713C40.3469 22.3011 40.3469 22.9218 40.3497 23.6043V23.6071Z" fill="white"></path><path d="M27.3803 22.0342C27.2454 22.9021 27.2117 24.18 27.2061 24.6379C27.2988 24.1941 27.948 21.4837 30.2917 20.0204C31.3287 19.0149 32.5118 18.1105 33.6415 17.5094C36.4883 15.9927 39.7201 17.56 39.8859 17.6442C39.7791 17.5038 36.6935 13.6615 31.7502 16.0798C28.9231 17.4645 27.6107 20.5316 27.3775 22.0342H27.3803Z" fill="white"></path><path d="M28.3499 15.1051C27.9059 15.3158 27.5687 15.6023 27.313 15.9477C26.5036 17.015 26.4052 18.6581 26.4586 20.3349C26.4755 20.7983 26.4924 21.2084 26.5205 21.5876C26.3912 21.2309 26.2423 20.8489 26.0708 20.4164C25.4441 18.8603 24.6882 17.397 23.5163 16.7482C23.1425 16.5348 22.7182 16.4112 22.2264 16.3971C20.6555 16.355 19.0115 17.2032 19.0115 17.2032C19.0115 17.2032 19.492 17.1892 19.9445 17.2032C22.7519 17.2875 24.3341 19.1665 25.5762 21.3825C25.6886 21.582 25.7954 21.7729 25.891 21.9527C25.8938 21.9527 25.8966 21.9611 25.8994 21.9639C25.9668 22.0566 26.0287 22.1465 26.0849 22.2336C26.4165 22.7532 26.7762 23.4553 27.0235 23.9637C27.0235 23.9637 27.0235 23.9693 27.0235 23.9721C27.0235 23.9721 27.0235 23.9721 27.0235 23.9693C27.0235 23.9693 27.0235 23.9693 27.0235 23.9721C27.0235 23.9721 27.0235 23.9665 27.0235 23.9637C27.0404 23.3992 27.0853 22.6099 27.1809 22.0033C27.1977 21.9021 27.2174 21.7954 27.2399 21.6831C27.2399 21.6803 27.2399 21.6746 27.2427 21.6718C27.2568 21.4668 27.2792 21.2505 27.3017 21.023C27.5434 18.4952 28.2291 16.1359 30.7639 14.9254C31.1714 14.7288 31.6155 14.549 31.6155 14.549C31.6155 14.549 29.7691 14.4367 28.3471 15.1108L28.3499 15.1051Z" fill="white"></path><path d="M10.6508 39.5855L21.5265 64.9366L19.6211 64.8187L8.79321 39.5799L10.2124 36.2993C10.3079 37.1363 10.4147 37.6615 10.4203 37.6868C10.4962 38.0716 10.766 38.3721 11.1089 38.5126L10.648 39.5799L10.6508 39.5855Z" fill="white"></path><path d="M91.201 39.7063L80.3422 64.8131C79.8391 64.8468 78.5914 64.9395 78.4115 64.9789L89.3434 39.7035L77.8691 12.9621L50.0561 1.83126L22.2037 12.8778L21.1414 15.3326C20.5653 15.4197 20.0426 15.5741 19.6154 15.7202C19.385 15.7988 19.1827 15.8803 19.0168 15.9477L20.9194 11.5521L50.0589 0L78.8359 11.51L79.1647 11.642L91.2038 39.7063H91.201Z" fill="white"></path><path d="M9.63342 77.4184C9.36083 76.0169 8.55991 75.0282 7.23347 74.4581C6.9946 74.3514 6.87095 74.3008 6.87095 74.3008C6.82036 74.2755 6.82036 74.2587 6.86252 74.2502C8.14961 73.9048 8.80159 72.9554 8.91681 71.6691C8.97582 71.0343 8.92524 70.408 8.7763 69.7816C8.43907 68.4054 7.50606 67.4982 6.18524 67.0375C5.71593 66.8718 5.26067 66.7735 4.84194 66.723C2.97032 66.5264 1.3769 66.3522 0.0588958 66.2034C0.0167421 66.2034 -0.000119436 66.2202 -0.000119436 66.2623V66.6331C-0.000119436 66.6752 0.0251728 66.6977 0.0645164 66.7061C0.848577 66.7876 1.30103 67.2173 1.40782 67.9841C1.46683 68.3801 1.49774 68.6834 1.49774 68.8913C1.50618 69.7086 1.52304 72.1971 1.5399 76.3764C1.5399 76.4916 1.56519 76.6152 1.56519 76.7135C1.55676 77.4465 1.55676 78.5447 1.57362 80.0024C1.57362 80.2243 1.5399 80.5473 1.48369 80.9742C1.41063 81.536 1.09588 81.8646 0.559121 81.9629C0.320249 82.005 0.137583 82.0219 0.0223626 82.0219C0.00550107 82.0219 -0.00292969 82.0303 -0.00292969 82.0471V82.4993C-0.00292969 82.4993 0.00550107 82.5162 0.0139318 82.5162H4.34453C4.42603 82.5162 4.75764 82.5246 5.30845 82.5331C5.63725 82.5415 5.96042 82.5331 6.28079 82.5078C7.32059 82.4347 8.18614 81.9966 8.87185 81.2045C9.19221 80.8422 9.41703 80.4293 9.54912 79.9687C9.77956 79.1514 9.80485 78.3032 9.63061 77.4128L9.63342 77.4184ZM3.19233 68.0796C3.19233 67.7257 3.35813 67.5515 3.70379 67.5684C3.81058 67.5684 4.05788 67.5937 4.43727 67.6414C6.1459 67.8464 7.03675 68.9615 7.18288 70.6327C7.25595 71.45 7.21661 72.2814 6.74448 72.9583C6.25831 73.6576 5.2691 73.784 4.45132 73.7334C3.95672 73.7082 3.64197 73.6913 3.50988 73.6745H3.29631C3.27101 73.6745 3.26258 73.6576 3.26258 73.6323C3.22043 71.2337 3.19795 69.38 3.18952 68.0768L3.19233 68.0796ZM7.71121 79.2413C7.63814 79.7187 7.48077 80.1485 7.2419 80.5361C6.81193 81.1877 6.07002 81.4517 5.29439 81.5332C4.83351 81.5837 4.36139 81.5978 3.90894 81.5163C3.66164 81.4658 3.50426 81.3337 3.43963 81.1287C3.37499 80.9237 3.3497 80.6849 3.34127 80.4434C3.32441 79.1233 3.31598 77.806 3.29912 76.4944C3.29912 76.486 3.29069 76.1967 3.27382 75.6209C3.26539 75.2754 3.26539 74.9608 3.28225 74.6715C3.28225 74.6463 3.29069 74.6378 3.31598 74.6378C3.95109 74.6631 4.56092 74.7446 5.16231 74.885C5.68221 75.017 6.12623 75.1996 6.48313 75.4467C7.25876 75.9832 7.63814 76.9382 7.72807 77.8959C7.77023 78.3734 7.77023 78.82 7.71121 79.2385V79.2413Z" fill="white"></path><path d="M93.3256 74.8344C93.2806 76.4438 93.2357 78.3649 93.1879 80.6006C93.1851 80.7888 93.1963 80.9742 93.2244 81.1624C93.2553 81.3646 93.393 81.446 93.6122 81.491C93.7499 81.5191 93.8399 81.5331 93.8764 81.5359C94.9752 81.5893 95.8211 81.5865 96.4141 81.5275C97.2009 81.4488 97.9653 81.1961 98.4684 80.5894C98.8562 80.1231 99.1625 79.5698 99.3901 78.9294C99.4829 78.6654 99.5447 78.4688 99.5784 78.3396C99.5868 78.3115 99.6037 78.2947 99.6346 78.2919L99.955 78.2694C99.9775 78.2694 99.9943 78.2835 99.9971 78.3059C99.9971 78.3087 99.9971 78.3115 99.9971 78.3143L99.2412 82.4852C99.2356 82.5077 99.2159 82.5274 99.1906 82.5274H89.7763C89.7763 82.5274 89.7678 82.5218 89.7678 82.5189V82.092C89.7678 82.092 89.7763 82.0724 89.7875 82.0696C90.0179 82.0583 90.254 82.0106 90.4901 81.9291C90.9509 81.7662 91.1673 81.4629 91.2854 80.977C91.3669 80.6427 91.4118 80.3029 91.4203 79.9518C91.6029 73.8177 91.7041 70.2562 91.7266 69.2676C91.7266 69.1637 91.721 69.0036 91.7041 68.7873C91.6928 68.6384 91.6563 68.4727 91.5917 68.293C91.4006 67.7453 90.7542 67.6329 90.2596 67.6442C90.2484 67.6442 90.2428 67.6385 90.2428 67.6273L90.2737 67.2032C90.2737 67.2032 90.2821 67.1864 90.2933 67.1835C93.2301 66.9251 96.1527 66.633 99.0585 66.3072C99.0922 66.3044 99.1091 66.3185 99.1091 66.3522L99.1513 69.7114C99.1513 69.7338 99.1344 69.7535 99.1091 69.7563L98.7943 69.7788C98.7719 69.7788 98.7578 69.7703 98.7522 69.7451C98.6791 69.2058 98.5442 68.5823 98.2632 68.0879C98.1705 67.925 97.9738 67.7537 97.7799 67.6835C97.4173 67.5543 97.0379 67.5065 96.6389 67.5374C96.1274 67.5796 95.2647 67.6582 94.0535 67.779C93.809 67.8043 93.6291 67.852 93.5504 68.0936C93.4998 68.2508 93.4717 68.3885 93.4689 68.5008C93.4521 69.0794 93.4099 70.8489 93.3397 73.8092C93.3397 73.8317 93.3509 73.8429 93.3734 73.8429C94.0563 73.8177 94.7701 73.7811 95.5092 73.7362C96.2342 73.6913 97.0801 73.6969 97.437 72.9133C97.6084 72.5341 97.7265 72.0285 97.7939 71.3938C97.7967 71.3601 97.8164 71.3404 97.8529 71.3376L98.1396 71.3179C98.1677 71.3179 98.1817 71.3292 98.1817 71.3572V76.7808C98.1817 76.8089 98.1677 76.8258 98.1396 76.8286L97.7855 76.8538C97.7686 76.8538 97.7546 76.8426 97.7546 76.8286C97.7405 76.6207 97.7096 76.3707 97.6562 76.0786C97.5916 75.7219 97.4932 75.4354 97.3611 75.2248C97.0548 74.7333 96.3017 74.6687 95.7761 74.6883C95.6384 74.694 94.8347 74.7305 93.3593 74.8007C93.3368 74.8007 93.3228 74.8147 93.3228 74.8372L93.3256 74.8344Z" fill="white"></path><path d="M14.2956 75.1744C14.4249 78.2275 14.5036 80.0756 14.5345 80.7244C14.5401 80.8339 14.5514 80.9435 14.571 81.0502C14.6076 81.258 14.6272 81.4153 14.8352 81.494C14.9813 81.5501 15.1387 81.5838 15.3017 81.5979C15.6726 81.6288 16.3246 81.6456 17.2604 81.6484C17.7045 81.6484 18.1429 81.6007 18.5728 81.5024C18.8117 81.449 19.0506 81.3591 19.2894 81.2356C20.1353 80.8002 20.6384 79.6515 20.866 78.7836C20.866 78.7723 20.8744 78.7667 20.8885 78.7667H21.2763C21.2763 78.7667 21.2875 78.7695 21.2847 78.778L20.7142 82.5023C20.7114 82.5219 20.6918 82.5388 20.6721 82.5388H11.2774C11.2493 82.5388 11.2353 82.5247 11.2353 82.4967L11.2156 82.1147C11.2156 82.0866 11.2268 82.0725 11.2549 82.0697C11.4938 82.0613 11.7327 82.0108 11.9687 81.9237C12.3903 81.7664 12.5758 81.4631 12.6572 81.0109C12.7163 80.6822 12.7387 80.3536 12.7247 80.0166C12.5027 74.3318 12.365 70.8406 12.3116 69.543C12.3032 69.3324 12.261 69.088 12.1823 68.8156C12.1092 68.5628 12.0165 68.3774 11.8985 68.2623C11.5865 67.9505 11.151 67.796 10.7294 67.737C10.7182 67.737 10.7126 67.7286 10.7097 67.7174L10.6816 67.3101C10.6816 67.2933 10.6873 67.2848 10.7041 67.2876L19.7559 67.973C19.7812 67.973 19.8009 67.9954 19.8037 68.0207L20.0117 71.0316C20.0117 71.0625 20.0004 71.0766 19.9695 71.0737L19.6351 71.0485C19.6098 71.0485 19.5929 71.0316 19.5873 71.0063C19.5058 70.585 19.3737 70.1722 19.1855 69.7677C18.9775 69.3127 18.6234 69.0122 18.126 68.8633C17.7747 68.7594 17.4403 68.6948 17.1199 68.6723C15.9593 68.5881 15.0909 68.5263 14.5204 68.4898C14.2226 68.4701 14.068 68.6049 14.0539 68.8914C14.0427 69.1526 14.0427 69.4138 14.0539 69.6778C14.0596 69.7902 14.1242 71.29 14.2479 74.1801C14.2479 74.2082 14.2647 74.2223 14.2928 74.2223C15.2342 74.2644 16.1701 74.3037 17.1003 74.3402C17.2183 74.343 17.4206 74.3178 17.7073 74.2616C18.1204 74.1801 18.348 73.9246 18.4801 73.5117C18.5981 73.1437 18.6628 72.7561 18.674 72.3545C18.674 72.3433 18.6824 72.3376 18.6937 72.3376L19.0646 72.3657C19.0815 72.3657 19.0899 72.377 19.0899 72.3938L19.3344 77.3203C19.3344 77.3568 19.3175 77.3764 19.281 77.3764H18.9831C18.9466 77.3764 18.9269 77.3596 18.9213 77.3231C18.8426 76.8343 18.7246 76.2895 18.4267 75.8401C18.1541 75.43 17.401 75.2699 16.912 75.2446C16.0014 75.1941 15.1387 75.1604 14.3265 75.1407C14.3012 75.1407 14.29 75.152 14.2928 75.1772L14.2956 75.1744Z" fill="white"></path><path d="M89.5176 82.0669C89.4838 82.0584 89.4276 82.05 89.3433 82.0331C89.0539 81.9601 88.8066 81.8365 88.6183 81.654C88.444 81.4798 88.2642 81.2411 88.0731 80.9209C86.8843 78.8678 85.8052 77.0225 84.8469 75.3822C84.8385 75.3653 84.8385 75.3485 84.8638 75.3401C84.9959 75.2979 85.1785 75.2418 85.4005 75.1575C85.9766 74.9609 86.4797 74.6547 86.9181 74.2334C87.7106 73.4835 88.0225 72.4106 88.0562 71.3236C88.0899 70.0288 87.7359 68.8267 86.5471 68.1414C86.2492 67.9673 85.8867 67.8437 85.4596 67.7622C85.0071 67.6808 84.6109 67.6555 84.2877 67.6808C82.2924 67.8212 80.5669 67.9448 79.1084 68.0347C79.0747 68.0347 79.0578 68.0515 79.0578 68.0852V68.4307C79.0578 68.4644 79.0747 68.4897 79.1084 68.4897C79.6199 68.5065 80.2297 68.5627 80.4208 69.1413C80.4798 69.3323 80.5107 69.512 80.5107 69.6778C80.5276 70.0738 80.5276 70.3209 80.5191 70.4108C80.3786 73.3459 80.2297 76.281 80.0807 79.216C80.0807 79.2245 80.0723 79.407 80.0639 79.7609C80.047 80.2637 79.9824 80.7243 79.8587 81.1456C79.7519 81.5248 79.5215 81.7888 79.173 81.9292C78.9173 82.0275 78.6616 82.0865 78.389 82.1034C78.3552 82.1034 78.3384 82.1202 78.3384 82.1539V82.5162C78.3384 82.5331 78.3468 82.5499 78.3721 82.5499H83.2704C83.2872 82.5499 83.2957 82.5415 83.2957 82.5247V82.1034C83.2957 82.1034 83.2957 82.0865 83.2872 82.0865C83.0399 82.0781 82.7926 82.0219 82.5369 81.9208C82.2221 81.7972 82.0254 81.5753 81.9355 81.2439C81.8371 80.9153 81.8034 80.5754 81.8203 80.2215C81.9018 78.2667 81.9777 76.7837 82.0254 75.7951C82.0254 75.7529 82.0592 75.7305 82.0985 75.722L82.9163 75.6631C82.95 75.6631 82.9669 75.6799 82.9809 75.7052L86.7495 82.5219C86.7495 82.5219 86.7579 82.5387 86.7748 82.5387H89.5063C89.5485 82.5387 89.5653 82.5219 89.5653 82.4882V82.1174C89.5653 82.0837 89.5485 82.0669 89.5147 82.0669H89.5176ZM82.1097 74.8373C82.0844 74.8373 82.0676 74.8204 82.0676 74.7952C82.0676 74.7306 82.0844 74.6716 82.0844 74.6042C82.2081 72.0651 82.2812 70.3575 82.3233 69.4755C82.3402 69.2452 82.3964 69.0627 82.506 68.9138C82.5875 68.7986 82.7786 68.7172 82.9275 68.6919C83.439 68.602 83.9252 68.5936 84.3804 68.6498C85.5692 68.8239 86.1031 69.6721 86.1874 70.8181C86.3111 72.5258 85.7181 74.0087 83.9757 74.5536C83.3828 74.7446 82.7645 74.8345 82.1125 74.8345L82.1097 74.8373Z" fill="white"></path><path d="M25.3455 81.5134C25.4326 81.5808 25.7277 81.6398 25.8401 81.6482C26.4696 81.6988 27.1553 81.7044 27.8972 81.6651C28.3159 81.6454 28.7599 81.5808 29.2321 81.4741C29.7098 81.3674 30.106 81.1736 30.4405 80.8028C30.907 80.2832 31.2217 79.5923 31.4128 78.9294C31.4156 78.9154 31.4241 78.9098 31.4381 78.9126L31.8231 78.935C31.8231 78.935 31.8344 78.9407 31.8315 78.9463L31.188 82.5021C31.1824 82.5301 31.1571 82.5498 31.129 82.5498H21.7737C21.7737 82.5498 21.7596 82.5442 21.7596 82.5358L21.7399 82.1229C21.7399 82.1229 21.7484 82.1032 21.7596 82.1004C21.9282 82.1004 22.1446 82.0639 22.4116 81.9881C23.0242 81.8167 23.1788 81.3645 23.2237 80.786C23.2378 80.5922 23.2406 80.3899 23.2294 80.1765C22.968 75.1321 22.8134 72.065 22.7657 70.978C22.7488 70.5652 22.701 70.1691 22.628 69.79C22.5521 69.3968 22.4031 68.9895 22.0491 68.7845C21.7512 68.6131 21.4224 68.5176 21.0627 68.4952C21.0514 68.4952 21.0458 68.4895 21.0458 68.4783L21.0261 68.0654C21.0261 68.0654 21.0317 68.0486 21.043 68.0486L25.9862 68.3295C25.9862 68.3295 26.0003 68.3351 26.0003 68.3435L26.0199 68.7423C26.0199 68.7423 26.0143 68.762 26.0003 68.762C25.604 68.7536 25.2752 68.821 25.0111 68.9614C24.7806 69.085 24.6345 69.3069 24.5783 69.6327C24.5165 69.9753 24.4996 70.3517 24.5249 70.759C24.5333 70.9106 24.7104 74.2417 25.0532 80.7523C25.0673 81.0331 25.1207 81.3336 25.3511 81.5106L25.3455 81.5134Z" fill="white"></path><path d="M71.5151 74.6967C71.5151 74.6967 71.5236 74.7164 71.532 74.7164C72.3947 74.7023 73.2631 74.6799 74.1315 74.649C74.4631 74.6377 74.7413 74.6012 74.9633 74.545C75.5872 74.3878 75.8373 73.9693 76.0172 73.3766C76.0987 73.107 76.1605 72.843 76.2026 72.5874C76.2026 72.579 76.2083 72.5733 76.2195 72.5733L76.6045 72.5481C76.6242 72.5481 76.6326 72.5565 76.6326 72.5761L76.3544 77.4661C76.3544 77.4661 76.3488 77.4801 76.3403 77.4801H75.9722C75.9722 77.4801 75.9497 77.4689 75.9497 77.4576C75.9357 77.0616 75.8738 76.6965 75.767 76.3566C75.6546 76.0027 75.4383 75.7668 75.0701 75.6573C74.7329 75.5562 74.4153 75.5112 74.109 75.514C73.8308 75.5168 72.9624 75.5393 71.4983 75.5786C71.4758 75.5786 71.4646 75.5927 71.4617 75.6151C71.3465 77.7975 71.2622 79.4911 71.2088 80.7017C71.206 80.7859 71.2088 80.9685 71.2173 81.2494C71.2201 81.387 71.2763 81.4853 71.3859 81.5471C71.4898 81.6061 71.6669 81.6426 71.9226 81.6566C72.7039 81.6988 73.502 81.7016 74.317 81.665C74.5586 81.6538 74.8622 81.6061 75.2219 81.5218C75.8064 81.3842 76.2729 81.1202 76.6916 80.6539C77.1525 80.1399 77.501 79.4911 77.7398 78.8367C77.7511 78.8058 77.7792 78.7861 77.8101 78.7861H78.1192C78.1586 78.7861 78.1726 78.8058 78.1642 78.8423L77.2284 82.5077C77.2228 82.5301 77.2031 82.547 77.1778 82.547H67.7522C67.7522 82.547 67.7354 82.5385 67.7354 82.5273L67.7578 82.1538C67.7578 82.1538 67.7635 82.1369 67.7747 82.1341C67.9995 82.1032 68.1175 82.0892 68.1344 82.0864C68.4941 82.0358 68.941 81.8617 69.1292 81.5274C69.2304 81.3477 69.3035 81.1511 69.3428 80.9404C69.4159 80.5584 69.4608 80.154 69.4805 79.7271C69.5171 78.8704 69.6632 75.8146 69.9133 70.5595C69.9302 70.2421 69.8936 69.95 69.8093 69.6832C69.6323 69.1327 68.9185 69.0119 68.4267 69.0007C68.4014 69.0007 68.3873 68.9867 68.3873 68.9614L68.3986 68.6243C68.3986 68.6019 68.4098 68.5878 68.4351 68.5878L77.7286 68.1272C77.7651 68.1272 77.7848 68.1441 77.782 68.1806L77.6808 71.1606C77.6808 71.1746 77.6724 71.183 77.6583 71.1859L77.3099 71.2027C77.2874 71.2027 77.2733 71.1943 77.2677 71.169C77.1385 70.2506 76.9586 69.3967 76.0649 69.2198C75.7305 69.1552 75.3905 69.1271 75.042 69.1411C75.0336 69.1411 74.1512 69.1776 72.3947 69.2507C72.2458 69.2563 72.1081 69.2928 71.9816 69.3602C71.8187 69.4473 71.7624 69.804 71.754 69.9697C71.6669 71.5706 71.5882 73.1463 71.5123 74.6967H71.5151Z" fill="white"></path><path d="M38.9584 79.1064C39.6778 76.6881 40.459 74.1294 41.3105 71.4303C41.4623 70.9444 41.5354 70.5399 41.5297 70.2141C41.5185 69.7675 41.3105 69.4867 40.9031 69.3715C40.6839 69.3097 40.4703 69.2732 40.2651 69.2648C40.2145 69.2648 40.1892 69.2367 40.1892 69.1833V68.9109C40.1892 68.8631 40.2145 68.8379 40.2623 68.8407L43.8932 68.9025C43.8932 68.9025 43.9072 68.9081 43.9072 68.9165V69.2929C43.9072 69.2929 43.8988 69.3125 43.8875 69.3125C43.4351 69.3575 43.1288 69.4811 42.9742 69.6917C42.6848 70.0793 42.5133 70.5708 42.3728 71.0202C41.156 74.9102 39.9672 78.8199 38.8122 82.7436C38.8066 82.7661 38.7897 82.7774 38.7673 82.7774H38.5734C38.5481 82.7774 38.5312 82.7661 38.5228 82.7436C37.6797 80.6765 36.1088 76.8735 33.8156 71.3264C33.661 70.95 33.4699 70.5427 33.2479 70.1074C33.1468 69.9108 33.04 69.7366 32.9219 69.5878C32.6465 69.2367 32.284 69.0963 31.854 69.012C31.8259 69.0064 31.8147 68.9895 31.8147 68.9614V68.6244C31.8147 68.6047 31.8259 68.5935 31.8456 68.5935L36.5191 68.748C36.5359 68.748 36.5443 68.7564 36.5443 68.7733V69.1524C36.5443 69.1524 36.5387 69.1693 36.5275 69.1721C36.238 69.1777 36.0188 69.1889 35.8671 69.2114C35.4596 69.2648 35.2601 69.4951 35.2657 69.9024C35.2657 70.1383 35.4146 70.5315 35.5242 70.7955C36.6371 73.4975 37.7724 76.2668 38.9246 79.1092C38.9415 79.1485 38.9555 79.1485 38.9668 79.1092L38.9584 79.1064Z" fill="white"></path><path d="M67.1986 73.6014C67.0918 72.8768 66.9007 72.2504 66.6225 71.7056C66.0689 70.6495 65.2286 69.8827 64.0904 69.4137C63.1406 69.0177 62.1345 68.821 61.0722 68.821C60.305 68.8295 59.5547 68.8379 58.8212 68.8547C58.3182 68.8716 57.8657 68.88 57.4526 68.8885C56.6854 68.8885 56.0925 68.8969 55.6456 68.9053C55.6372 68.9053 55.6288 68.9137 55.6288 68.9306V69.3098C55.6288 69.3098 55.6372 69.335 55.6541 69.335C56.0419 69.335 56.4044 69.4165 56.7416 69.5822C56.9159 69.6637 57.048 69.8209 57.1042 69.9951C57.1857 70.2675 57.2362 70.5484 57.2447 70.8433C57.2447 70.8854 57.2362 71.1635 57.2278 71.6999C57.0873 77.396 57.0142 80.2889 57.0142 80.3816C57.0058 80.6709 56.9637 80.9517 56.8906 81.2214C56.8091 81.5359 56.6601 81.7494 56.4297 81.8814C56.1571 82.0303 55.8114 82.1202 55.3899 82.1454C55.3815 82.1454 55.373 82.1539 55.373 82.1623V82.533C55.373 82.5499 55.3815 82.5499 55.3899 82.5499H60.1505C60.794 82.5499 61.2465 82.533 61.5191 82.4993C62.6488 82.3589 63.7954 81.9629 64.6525 81.2635C65.6586 80.4378 66.3836 79.4013 66.8304 78.1318C67.0693 77.4325 67.2267 76.6797 67.2745 75.8737C67.3335 75.0816 67.2998 74.3317 67.2014 73.607L67.1986 73.6014ZM60.9205 81.623C60.4737 81.7045 60.0296 81.7382 59.5856 81.7297C59.1388 81.7213 58.8521 81.5809 58.81 81.1034C58.8016 80.9293 58.7931 80.7074 58.8016 80.4181C58.8662 78.4633 58.9589 75.3231 59.091 70.995C59.0994 70.6664 59.1079 70.4417 59.1163 70.3265C59.1332 70.0288 59.2568 69.8322 59.4873 69.7423C59.5772 69.7002 59.7851 69.6777 60.1055 69.6693C61.9771 69.6356 63.6436 70.2394 64.5598 71.9274C64.8661 72.4976 65.0628 73.0987 65.1696 73.7503C65.6895 76.9746 64.6328 80.9293 60.9205 81.623Z" fill="white"></path><path d="M48.0804 75.8765C48.0691 76.2445 48.0663 76.604 48.0748 76.9551C48.0888 77.5196 48.0944 77.8791 48.0944 78.0308C48.0972 79.6205 48.1113 80.6541 48.1366 81.1316C48.145 81.2945 48.1731 81.5248 48.3558 81.5922C48.53 81.6568 48.7155 81.6933 48.9122 81.7046C49.8143 81.7551 50.6714 81.7748 51.4358 81.7074C52.2339 81.6371 53.0124 81.4265 53.5744 80.8367C54.0437 80.3452 54.3866 79.7272 54.6311 79.0588C54.6423 79.0251 54.6676 79.0082 54.7041 79.0082H55.0133C55.0386 79.0082 55.0582 79.0279 55.0582 79.0532C55.0582 79.056 55.0582 79.0616 55.0582 79.0644L54.2405 82.5303C54.2405 82.5303 54.2264 82.5528 54.2124 82.5528H44.8064C44.7699 82.5528 44.7502 82.5359 44.7502 82.4994L44.7362 82.1989C44.7362 82.1708 44.7559 82.1483 44.784 82.1483C45.1296 82.1315 45.4303 82.0613 45.6889 81.9349C45.9699 81.7972 46.1469 81.5473 46.22 81.1906C46.2959 80.8142 46.3212 80.4575 46.3155 80.0924C46.2706 77.4213 46.2425 75.2558 46.2284 73.5987C46.2284 73.5172 46.2144 73.3909 46.2144 73.2757C46.2144 72.8347 46.2031 72.0792 46.1835 71.0147C46.1806 70.8012 46.1666 70.6299 46.1413 70.4979C46.0739 70.1159 45.9362 69.7705 45.5764 69.5907C45.2448 69.425 44.8964 69.3407 44.5254 69.3351C44.5142 69.3351 44.5029 69.3239 44.5029 69.3126V68.9391C44.5029 68.9391 44.5086 68.925 44.517 68.925H54.1871C54.2489 68.925 54.2798 68.9559 54.2798 69.0177V71.7955C54.2798 71.7955 54.2742 71.8096 54.2657 71.8124L53.8695 71.832C53.8695 71.832 53.8526 71.8264 53.8526 71.818C53.8021 71.4444 53.6953 71.0737 53.5323 70.7058C53.3608 70.3182 53.0742 70.0654 52.6751 69.9418C52.2677 69.8182 51.8124 69.7592 51.3009 69.762C50.1094 69.7705 49.2157 69.7677 48.6171 69.7564C48.2518 69.7508 48.0663 69.9306 48.0635 70.2957C48.0579 70.981 48.0635 72.5454 48.0804 74.9862C48.0804 74.9974 48.0916 75.0087 48.1029 75.0087C49.7019 75.0087 50.5618 75.0143 50.6855 75.0171C51.0227 75.0227 51.3684 74.9862 51.7197 74.9075C52.0681 74.8261 52.3182 74.6323 52.47 74.3261C52.6386 73.9835 52.751 73.5818 52.8072 73.1184C52.8072 73.1016 52.8185 73.0931 52.8353 73.0903L53.2035 73.0707C53.2288 73.0707 53.24 73.0819 53.24 73.1072L53.1866 77.7247C53.1866 77.7443 53.1754 77.7555 53.1557 77.7555H52.8016C52.7819 77.7555 52.7707 77.7443 52.7679 77.7247C52.7538 77.5533 52.7061 77.2865 52.6161 76.9214C52.4812 76.3624 52.1243 76.0338 51.5454 75.9327C51.1941 75.8709 50.9412 75.84 50.7867 75.84C49.3843 75.84 48.4963 75.84 48.1253 75.84C48.1029 75.84 48.0916 75.8513 48.0916 75.8737L48.0804 75.8765Z" fill="white"></path><path d="M42.7999 86.8584C42.2238 86.2658 41.4707 86.0186 40.6135 86.0271C39.7564 86.0271 39.0145 86.2827 38.4356 86.8837C37.8173 87.5353 37.6347 88.3667 37.6431 89.2402C37.6431 90.1137 37.8342 90.9394 38.4609 91.5826C39.0454 92.1753 39.7958 92.4224 40.6557 92.414C41.5128 92.414 42.2547 92.1584 42.8336 91.5574C43.4519 90.9057 43.6346 90.0744 43.6261 89.2009C43.6261 88.3274 43.435 87.5016 42.7999 86.8584ZM42.2716 89.9087C42.1142 90.7485 41.5044 91.327 40.6304 91.327C39.7564 91.327 39.155 90.7513 39.0061 89.9087C38.9639 89.6868 38.9414 89.4565 38.9471 89.2149C38.9471 88.9678 38.9639 88.7374 39.0061 88.5156C39.155 87.6758 39.7648 87.1056 40.6388 87.1056C41.5128 87.1056 42.1142 87.6814 42.2716 88.524C42.3137 88.7374 42.3306 88.9677 42.3306 89.2177C42.3306 89.4677 42.3137 89.6952 42.2716 89.9115V89.9087Z" fill="white"></path><path d="M29.7155 88.5464C30.1089 88.5464 30.5079 88.5464 30.9098 88.5464C30.9182 88.5464 30.9267 88.538 30.9267 88.5296V86.1731C30.9267 86.1534 30.9407 86.1394 30.9604 86.1394H32.1519C32.1744 86.1394 32.1857 86.1506 32.1857 86.1731V92.2764C32.1857 92.296 32.1716 92.3101 32.1519 92.3101H30.9435C30.9435 92.3101 30.9267 92.3017 30.9267 92.2932V89.6306C30.9267 89.6306 30.9182 89.6109 30.907 89.6109C30.5108 89.6109 30.1145 89.6109 29.7155 89.6109C29.3164 89.6109 28.9173 89.6109 28.5211 89.6109C28.5099 89.6109 28.5014 89.6194 28.5014 89.6306V92.2932C28.5014 92.2932 28.4958 92.3101 28.4846 92.3101H27.2762C27.2565 92.3101 27.2424 92.296 27.2424 92.2764V86.1731C27.2424 86.1506 27.2537 86.1394 27.2762 86.1394H28.4677C28.4874 86.1394 28.5014 86.1534 28.5014 86.1731V88.5296C28.5014 88.5296 28.507 88.5464 28.5183 88.5464C28.923 88.5464 29.322 88.5464 29.7155 88.5464Z" fill="white"></path><path d="M51.0395 86.1394C51.8433 86.1394 52.6526 86.1394 53.4648 86.1394C53.4816 86.1394 53.4929 86.1534 53.4929 86.1675V87.1646C53.4929 87.187 53.4816 87.1983 53.4592 87.1983H51.6971C51.6747 87.1983 51.6634 87.2095 51.6634 87.232V92.2764C51.6634 92.2932 51.6494 92.3045 51.6353 92.3045C51.4583 92.3045 51.2587 92.3073 51.0395 92.3073C50.8203 92.3073 50.6208 92.3073 50.4438 92.3045C50.4269 92.3045 50.4157 92.2904 50.4157 92.2764V87.232C50.4157 87.2095 50.4044 87.1983 50.3819 87.1983H48.6199C48.5974 87.1983 48.5862 87.187 48.5862 87.1646V86.1675C48.5862 86.1506 48.6002 86.1394 48.6143 86.1394C49.4264 86.1394 50.2358 86.1394 51.0395 86.1394Z" fill="white"></path><path d="M60.0071 88.5296H63.0365C63.0534 88.5296 63.0702 88.5436 63.0702 88.5605V89.5548C63.0702 89.5716 63.0562 89.5885 63.0365 89.5885H60.0071C59.9902 89.5885 59.9734 89.6025 59.9734 89.6222V91.2147C59.9734 91.2315 59.9874 91.2484 60.0071 91.2484H63.3962C63.4131 91.2484 63.43 91.2624 63.43 91.2793V92.2764C63.43 92.2932 63.4159 92.3101 63.3962 92.3101H58.7425C58.7256 92.3101 58.7087 92.296 58.7087 92.2764V86.1731C58.7087 86.1563 58.7228 86.1394 58.7425 86.1394H63.2782C63.2951 86.1394 63.3119 86.1534 63.3119 86.1731V87.1646C63.3119 87.1814 63.2951 87.1983 63.2782 87.1983H60.0099C59.993 87.1983 59.9762 87.2151 59.9762 87.232V88.4987C59.9762 88.5155 59.993 88.5324 60.0099 88.5324L60.0071 88.5296Z" fill="white"></path><path d="M70.2338 91.2456H73.2492C73.266 91.2456 73.2801 91.2596 73.2801 91.2765V92.2764C73.2801 92.2932 73.266 92.3073 73.2492 92.3073H68.9691C68.9523 92.3073 68.9382 92.2932 68.9382 92.2764V86.204C68.9382 86.1871 68.9523 86.1731 68.9691 86.1731H70.1719C70.1888 86.1731 70.2028 86.1871 70.2028 86.204V91.2147C70.2028 91.2315 70.2169 91.2456 70.2338 91.2456Z" fill="white"></path><path d="M42.7805 98.346H45.7481C45.7481 98.346 45.7706 98.3544 45.7706 98.3685C45.7706 98.3769 45.7678 98.3825 45.7622 98.3881L43.3622 100.13C43.3622 100.13 43.351 100.146 43.3538 100.155L44.2727 102.975C44.2727 102.975 44.2727 103 44.2587 103.003C44.2502 103.003 44.2446 103.003 44.239 103L41.839 101.256C41.839 101.256 41.8222 101.25 41.8137 101.256L39.4138 103C39.4138 103 39.3885 103.006 39.3829 102.994C39.3773 102.989 39.3773 102.98 39.3801 102.975L40.299 100.155C40.299 100.155 40.299 100.135 40.2906 100.13L37.8906 98.3881C37.8906 98.3881 37.8766 98.3657 37.885 98.3572C37.8906 98.3516 37.8963 98.3488 37.9047 98.3488H40.8723C40.8723 98.3488 40.8892 98.3432 40.8948 98.3348L41.8109 95.5149C41.8109 95.5149 41.8278 95.498 41.839 95.5008C41.8447 95.5008 41.8503 95.5092 41.8531 95.5149L42.7692 98.3348C42.7692 98.3348 42.7805 98.3488 42.7917 98.3488L42.7805 98.346Z" fill="white"></path><path d="M74.9943 98.3432H77.9591C77.9591 98.3432 77.9816 98.3544 77.9816 98.3657C77.9816 98.3741 77.9788 98.3797 77.9732 98.3825L75.5761 100.127C75.5761 100.127 75.5648 100.144 75.5676 100.152L76.481 102.972C76.481 102.972 76.4781 102.994 76.4669 103C76.4613 103 76.4529 103 76.4472 102.997L74.0473 101.259C74.0473 101.259 74.0276 101.253 74.022 101.259L71.622 102.997C71.622 102.997 71.5995 103.003 71.5911 102.992C71.5883 102.986 71.5855 102.98 71.5883 102.972L72.5016 100.152C72.5016 100.152 72.5016 100.132 72.4932 100.127L70.0961 98.3825C70.0961 98.3825 70.0848 98.3629 70.0904 98.3516C70.0933 98.346 70.1017 98.3432 70.1073 98.3432H73.0721C73.0721 98.3432 73.089 98.3348 73.0918 98.3263L74.0107 95.5092C74.0107 95.5092 74.0276 95.4924 74.0388 95.4952C74.0445 95.4952 74.0501 95.5008 74.0529 95.5092L74.9718 98.3263C74.9718 98.3263 74.9831 98.3404 74.9915 98.3404L74.9943 98.3432Z" fill="white"></path><path d="M26.6777 98.3432H29.6397C29.6397 98.3432 29.6622 98.3544 29.6622 98.3685C29.6622 98.3769 29.6594 98.3825 29.6538 98.3881L27.2566 100.13C27.2566 100.13 27.2454 100.146 27.2482 100.155L28.1615 102.972C28.1615 102.972 28.1615 102.997 28.1475 103C28.139 103 28.1334 103 28.1278 102.997L25.7278 101.259C25.7278 101.259 25.711 101.253 25.7025 101.259L23.3026 102.997C23.3026 102.997 23.2773 103.003 23.2717 102.992C23.2661 102.986 23.2661 102.978 23.2689 102.972L24.1822 100.155C24.1822 100.155 24.1822 100.135 24.1738 100.13L21.7766 98.3881C21.7766 98.3881 21.7626 98.3657 21.771 98.3572C21.7766 98.3516 21.7822 98.3488 21.7907 98.3488H24.7527C24.7527 98.3488 24.7724 98.3404 24.7752 98.332L25.6941 95.5149C25.6941 95.5149 25.711 95.498 25.7222 95.5008C25.7278 95.5008 25.7335 95.5092 25.7363 95.5149L26.6552 98.332C26.6552 98.332 26.6665 98.3488 26.6777 98.3488V98.3432Z" fill="white"></path><path d="M58.8889 98.3432H61.8509C61.8509 98.3432 61.8734 98.3544 61.8734 98.3685C61.8734 98.3769 61.8706 98.3825 61.8649 98.3881L59.4678 100.13C59.4678 100.13 59.4566 100.146 59.4594 100.155L60.3727 102.972C60.3727 102.972 60.3727 102.997 60.3586 103C60.3502 103 60.3446 103 60.339 102.997L57.939 101.259C57.939 101.259 57.9222 101.253 57.9137 101.259L55.5138 102.997C55.5138 102.997 55.4885 103.003 55.4829 102.992C55.4772 102.986 55.4772 102.978 55.4801 102.972L56.3934 100.155C56.3934 100.155 56.3934 100.135 56.385 100.13L53.9878 98.3881C53.9878 98.3881 53.9738 98.3657 53.9822 98.3572C53.9878 98.3516 53.9934 98.3488 54.0019 98.3488H56.9639C56.9639 98.3488 56.9807 98.3404 56.9863 98.332L57.9053 95.5149C57.9053 95.5149 57.9222 95.498 57.9334 95.5008C57.939 95.5008 57.9446 95.5092 57.9475 95.5149L58.8664 98.332C58.8664 98.332 58.8776 98.346 58.8889 98.346V98.3432Z" fill="white"></path></g><defs><clipPath id="clip0_1_371"><rect width="100" height="103" fill="white"></rect></clipPath></defs></svg>